<?xml version="1.0" encoding="UTF-8" standalone="no"?>
<!-- Created with Inkscape (http://www.inkscape.org/) -->

<svg
   width="800"
   height="600"
   viewBox="0 0 211.66666 158.75"
   version="1.1"
   id="svg5"
   inkscape:version="1.2.1 (9c6d41e410, 2022-07-14)"
   sodipodi:docname="uwu.svg"
   xmlns:inkscape="http://www.inkscape.org/namespaces/inkscape"
   xmlns:sodipodi="http://sodipodi.sourceforge.net/DTD/sodipodi-0.dtd"
   xmlns:xlink="http://www.w3.org/1999/xlink"
   xmlns="http://www.w3.org/2000/svg"
   xmlns:svg="http://www.w3.org/2000/svg">
  <sodipodi:namedview
     id="namedview7"
     pagecolor="#570773"
     bordercolor="#000000"
     borderopacity="0.25"
     inkscape:showpageshadow="2"
     inkscape:pageopacity="0"
     inkscape:pagecheckerboard="0"
     inkscape:deskcolor="#d1d1d1"
     inkscape:document-units="mm"
     showgrid="false"
     inkscape:zoom="1"
     inkscape:cx="462.5"
     inkscape:cy="256.5"
     inkscape:window-width="3840"
     inkscape:window-height="2054"
     inkscape:window-x="3829"
     inkscape:window-y="-11"
     inkscape:window-maximized="1"
     inkscape:current-layer="layer1" />
  <defs
     id="defs2">
    <clipPath
       clipPathUnits="userSpaceOnUse"
       id="clipPath18330">
      <use
         x="0"
         y="0"
         xlink:href="#text186"
         id="use18332"
         style="stroke:none;stroke-width:26.4583;stroke-dasharray:none;stroke-opacity:1" />
    </clipPath>
    <clipPath
       clipPathUnits="userSpaceOnUse"
       id="clipPath18334">
      <use
         x="0"
         y="0"
         xlink:href="#text186"
         id="use18336"
         style="stroke:none;stroke-width:26.4583;stroke-dasharray:none;stroke-opacity:1" />
    </clipPath>
    <clipPath
       clipPathUnits="userSpaceOnUse"
       id="clipPath18338">
      <use
         x="0"
         y="0"
         xlink:href="#text186"
         id="use18340"
         style="stroke:none;stroke-width:26.4583;stroke-dasharray:none;stroke-opacity:1" />
    </clipPath>
    <clipPath
       clipPathUnits="userSpaceOnUse"
       id="clipPath18342">
      <use
         x="0"
         y="0"
         xlink:href="#text186"
         id="use18344"
         style="stroke:none;stroke-width:26.4583;stroke-dasharray:none;stroke-opacity:1" />
    </clipPath>
  </defs>
  <g
     inkscape:label="Layer 1"
     inkscape:groupmode="layer"
     id="layer1">
    <g
       id="g34855"
       transform="translate(0,1.0583333)">
      <path
         id="path34819"
         style="font-size:16.51px;line-height:0.7;font-family:'FOT-Yuruka Std';-inkscape-font-specification:'FOT-Yuruka Std';text-align:center;baseline-shift:super;text-anchor:middle;fill:#aaaaaa;fill-opacity:1;stroke-width:7.937;stroke-linecap:square;stroke-linejoin:round;paint-order:stroke markers fill"
         d="m 40.763672,59.957031 c -1.64134,0.451164 -3.283047,1.08501 -4.685547,2.056641 -0.785072,0.75773 -0.798523,1.988399 -0.433594,2.951172 -0.987775,1.098472 -0.514508,2.698517 0.07706,3.866114 0.37836,1.131096 0.944289,2.432844 2.231538,2.731542 0.44096,0.14828 0.976752,-0.182883 1.104193,0.456322 1.252558,2.000709 3.530835,3.600278 5.984377,3.223759 1.471407,-0.02706 3.233112,-0.98101 3.203218,-2.637892 -0.03152,-1.465663 0.176423,-3.183028 -0.844852,-4.374635 C 47.221522,67.860529 46.300627,67.98477 46.588048,67.51648 47.017393,66.126477 46.1284,64.839476 45.695774,63.576998 45.304845,62.597033 44.402145,61.735645 43.314453,61.726562 42.985025,60.688005 41.868129,59.869079 40.763672,59.957031 Z" />
      <path
         id="path34821"
         style="font-size:16.51px;line-height:0.7;font-family:'FOT-Yuruka Std';-inkscape-font-specification:'FOT-Yuruka Std';text-align:center;baseline-shift:super;text-anchor:middle;fill:#aaaaaa;fill-opacity:1;stroke-width:7.937;stroke-linecap:square;stroke-linejoin:round;paint-order:stroke markers fill"
         d="m 48.984375,55.232422 c -1.57656,0.304969 -3.404132,0.04453 -4.770008,1.06925 -1.202898,1.165425 -0.607903,2.93125 -0.475782,4.37543 0.504055,3.930475 0.831578,7.891012 1.515321,11.793601 0.601615,1.505273 2.505666,1.665788 3.869141,1.287109 1.302268,-0.112749 3.054931,-0.120616 3.78125,-1.496093 0.112623,-0.709937 0.579417,0.07485 0.95054,0.170327 1.386543,0.810304 3.379247,1.057568 4.598928,-0.187803 0.756521,-0.721271 1.548431,-1.492515 2.009126,-2.435649 C 60.900523,68.532134 59.960982,67.336247 59.066406,66.5625 58.625477,65.249283 58.58893,63.758367 57.634552,62.663984 56.355737,60.776917 54.050244,59.78875 51.865234,59.625 c -0.149764,-1.377939 -0.108518,-3.11356 -1.363281,-4 -0.446724,-0.289655 -0.986472,-0.428959 -1.517578,-0.392578 z" />
      <path
         id="path34823"
         style="font-size:16.51px;line-height:0.7;font-family:'FOT-Yuruka Std';-inkscape-font-specification:'FOT-Yuruka Std';text-align:center;baseline-shift:super;text-anchor:middle;fill:#aaaaaa;fill-opacity:1;stroke-width:7.937;stroke-linecap:square;stroke-linejoin:round;paint-order:stroke markers fill"
         d="m 62.515625,60.261719 c -3.692459,0.282498 -6.714846,3.975152 -6.185547,7.658203 0.330245,3.137325 2.935924,5.748468 5.990234,6.353516 1.536696,0.473285 3.41324,-0.180895 4.059913,-1.718637 0.347472,-0.53857 0.704078,-1.087846 0.867822,-1.714957 1.82633,-0.406017 3.217496,-2.190255 3.095486,-4.070862 0.199133,-2.971349 -2.051049,-5.941464 -5.048611,-6.333435 -0.912974,-0.181999 -1.851048,-0.224597 -2.779297,-0.173828 z" />
      <path
         id="path34825"
         style="font-size:25.4px;line-height:0.7;font-family:'FOT-Yuruka Std';-inkscape-font-specification:'FOT-Yuruka Std';text-align:center;text-anchor:middle;fill:#aaaaaa;fill-opacity:1;stroke-width:7.937;stroke-linecap:square;stroke-linejoin:round;paint-order:stroke markers fill"
         d="M 76.822266,65.673828 C 75.22678,65.906433 74.608475,67.62327 74.333984,69 c -1.114372,3.979589 -2.357133,7.927045 -3.335937,11.941406 -0.0914,1.714742 1.663277,2.766456 3.17107,2.944817 1.715553,0.376502 3.419926,1.341611 5.213732,1.003165 1.571417,-0.517442 1.862597,-2.337509 2.239732,-3.724403 0.44472,-1.502114 0.842249,-3.017804 1.305153,-4.514594 1.164336,0.611171 2.767113,0.352766 3.478733,-0.820623 0.849675,-1.142892 1.46125,-2.444432 2.227685,-3.639561 0.621539,-1.288407 0.202491,-3.043455 -1.144559,-3.683192 -2.095478,-1.391366 -4.626252,-1.84078 -7.079122,-2.11195 -1.192467,-0.256426 -2.337402,-0.842456 -3.588205,-0.721237 z" />
      <path
         id="path34827"
         style="font-size:25.4px;line-height:0.7;font-family:'FOT-Yuruka Std';-inkscape-font-specification:'FOT-Yuruka Std';text-align:center;text-anchor:middle;fill:#aaaaaa;fill-opacity:1;stroke-width:7.937;stroke-linecap:square;stroke-linejoin:round;paint-order:stroke markers fill"
         d="m 88.478516,69.808594 c -1.777854,0.272931 -2.514535,2.155916 -2.880764,3.694465 -0.922444,3.264793 -2.518122,6.589436 -1.798924,10.061394 0.673467,3.117919 3.415059,5.476793 6.474508,6.131869 1.575486,0.3965 3.175145,0.305363 4.619569,1.076953 1.33248,0.516449 2.694346,1.274806 4.157876,1.187663 1.629169,-0.323901 2.176459,-2.090258 2.653649,-3.456452 1.42752,-3.71857 2.99384,-7.388911 4.27995,-11.158783 0.25042,-1.650037 -1.31772,-2.881839 -2.7793,-3.191406 -1.68369,-0.549422 -3.294501,-1.673774 -5.124344,-1.545351 -1.643983,0.343801 -2.148174,2.156444 -2.650597,3.524097 -0.07386,0.129049 0.221207,-0.918782 0.320983,-1.249986 0.420673,-1.320873 0.102219,-3.053928 -1.282973,-3.662054 -1.379463,-0.668543 -2.935886,-0.805779 -4.38838,-1.258718 -0.523446,-0.125401 -1.062835,-0.191886 -1.601253,-0.153691 z" />
      <path
         id="path34829"
         style="font-size:25.4px;line-height:0.7;font-family:'FOT-Yuruka Std';-inkscape-font-specification:'FOT-Yuruka Std';text-align:center;text-anchor:middle;fill:#aaaaaa;fill-opacity:1;stroke-width:7.937;stroke-linecap:square;stroke-linejoin:round;paint-order:stroke markers fill"
         d="m 113.60547,69.859375 c -3.08301,0.217581 -5.90324,2.298354 -7.16016,5.099609 -1.40231,-0.121148 -2.75559,0.952979 -2.94153,2.351398 -0.47252,1.574581 -1.29847,3.122107 -1.25573,4.795087 0.17793,0.910404 0.89949,1.631085 1.72656,1.998047 -0.52317,2.523238 -1.15511,5.043395 -1.43593,7.603465 0.12686,1.703942 1.93261,2.631895 3.47394,2.681057 1.69061,0.233258 3.42288,0.953953 5.13138,0.529225 1.5645,-0.633843 1.74608,-2.506303 1.95557,-3.956739 0.24435,-1.289942 0.43251,-2.632369 0.75395,-3.882399 1.34916,0.103746 2.65569,-0.905912 2.84993,-2.25433 0.49142,-1.61871 1.34965,-3.218008 1.27702,-4.942936 -0.37081,-0.583098 0.23132,-0.498573 0.6463,-0.696332 1.53734,-0.634058 1.82938,-2.451129 2.49613,-3.787192 0.84652,-1.445937 0.26739,-3.599108 -1.37037,-4.184362 -1.85403,-1.047753 -4.03143,-1.464892 -6.14706,-1.353598 z" />
      <path
         id="path34831"
         style="font-size:25.4px;line-height:0.7;font-family:'FOT-Yuruka Std';-inkscape-font-specification:'FOT-Yuruka Std';text-align:center;text-anchor:middle;fill:#aaaaaa;fill-opacity:1;stroke-width:7.937;stroke-linecap:square;stroke-linejoin:round;paint-order:stroke markers fill"
         d="m 126.13086,72.019531 c -3.54317,0.03472 -7.33429,1.714815 -8.93945,5.025391 -0.3078,0.369783 -0.19487,0.995786 -0.84375,0.851562 -1.35126,0.22939 -2.27301,1.532288 -2.28842,2.860366 -0.27984,1.541223 -0.88263,3.105074 -0.63736,4.682603 0.28235,0.880312 1.07947,1.507429 1.93945,1.777344 -0.23049,2.5631 -0.56691,5.13533 -0.55029,7.70735 0.31651,1.703332 2.25453,2.40779 3.80444,2.274543 1.70298,0.04154 3.50604,0.558242 5.14624,-0.0815 0.42153,-0.0473 0.83153,-1.165621 0.92187,-0.396485 0.63365,1.521382 2.49002,1.740603 3.9323,1.707009 1.56043,0.05514 3.42288,0.606127 4.97786,-0.117165 1.45152,-0.921498 1.25641,-2.831933 1.40015,-4.318647 0.26757,-3.675642 0.71445,-7.347024 0.79126,-11.030962 -0.0874,-0.479163 -0.70084,-0.79896 -0.11231,-1.18464 1.59939,-2.181468 1.38279,-5.620241 -0.83881,-7.310063 -2.36861,-2.053781 -5.69789,-2.398177 -8.70318,-2.446704 z" />
      <path
         id="path34833"
         style="font-size:25.4px;line-height:0.7;font-family:'FOT-Yuruka Std';-inkscape-font-specification:'FOT-Yuruka Std';text-align:center;text-anchor:middle;fill:#aaaaaa;fill-opacity:1;stroke-width:7.937;stroke-linecap:square;stroke-linejoin:round;paint-order:stroke markers fill"
         d="m 141.12891,79.808594 c -4.26424,0.184119 -7.88498,3.848142 -8.44507,8.0088 -0.66133,3.911571 1.50361,8.082213 5.08854,9.787988 2.67836,1.375927 5.96218,1.548186 8.75301,0.40243 1.34514,0.765625 3.01426,1.527859 4.56444,0.968122 1.43122,-0.577668 1.90872,-2.146842 2.5139,-3.418553 0.68018,-1.137951 1.38792,-2.702209 0.45486,-3.908943 -0.38946,-0.544761 -1.21995,-0.789417 -1.15234,-1.576172 -0.34901,-2.460717 0.55052,-4.82771 0.41797,-7.291016 -0.10651,-1.476363 -1.5957,-2.327684 -2.94908,-2.384377 -1.82302,-0.07318 -3.65714,-0.303151 -5.47553,-0.198533 -1.22364,-0.336363 -2.50409,-0.468004 -3.7707,-0.389746 z" />
      <path
         id="path34835"
         style="font-size:25.4px;line-height:0.7;font-family:'FOT-Yuruka Std';-inkscape-font-specification:'FOT-Yuruka Std';text-align:center;text-anchor:middle;fill:#aaaaaa;fill-opacity:1;stroke-width:7.937;stroke-linecap:square;stroke-linejoin:round;paint-order:stroke markers fill"
         d="m 160.91602,77.960938 c -2.504,-0.06105 -4.79747,1.201127 -7.28103,1.309658 -1.32565,0.114058 -2.64256,1.088762 -2.67732,2.506721 -0.0735,1.383015 0.36194,2.730448 0.43455,4.107801 0.46524,3.410762 0.79745,6.844989 1.42419,10.230116 0.60882,1.585001 2.60857,1.869564 4.05586,1.4242 1.70578,-0.31375 3.61122,-0.148437 5.14435,-1.107288 1.05293,-0.858481 0.95487,-2.347632 0.74315,-3.551287 1.41406,2.103964 3.91309,3.573634 6.47601,3.488268 1.88926,-0.242556 2.88334,-2.065198 4.17828,-3.232408 1.00282,-1.100487 1.05302,-3.053151 -0.24273,-3.956313 -0.68401,-0.536155 -1.45154,-1.141974 -1.46596,-2.095402 -0.42496,-2.274141 -1.16607,-4.627355 -2.94938,-6.214449 -2.05533,-2.011738 -4.99241,-2.98711 -7.83997,-2.909617 z" />
      <path
         id="path34837"
         style="font-size:25.4px;line-height:0.7;font-family:'FOT-Yuruka Std';-inkscape-font-specification:'FOT-Yuruka Std';text-align:center;text-anchor:middle;fill:#aaaaaa;fill-opacity:1;stroke-width:7.937;stroke-linecap:square;stroke-linejoin:round;paint-order:stroke markers fill"
         d="m 177.26367,73.792969 c -3.49788,0.603538 -6.9755,2.645832 -8.51953,5.943359 -0.90193,2.2914 0.0501,5.042216 2.05298,6.425317 0.22337,0.318229 1.22849,0.607762 0.9424,0.885258 -1.11705,0.617192 -1.56198,2.100418 -0.92311,3.218722 0.60004,1.194659 1.62978,2.096166 2.36523,3.201172 0.97562,1.075671 2.61037,1.07533 3.84839,0.49491 2.94019,-1.039136 5.85885,-2.928909 7.11354,-5.896612 0.91135,-2.220062 -0.0309,-4.854149 -1.90594,-6.261464 -0.19894,-0.330638 -1.21721,-0.588108 -0.90755,-0.899334 1.07778,-0.929295 1.16415,-2.71325 0.11749,-3.703317 -0.98027,-1.155116 -1.73296,-2.707117 -3.22101,-3.279105 -0.30983,-0.100558 -0.63726,-0.148016 -0.96289,-0.128906 z" />
      <path
         id="path34839"
         style="font-size:9.525px;line-height:0.7;font-family:'FOT-Yuruka Std';-inkscape-font-specification:'FOT-Yuruka Std';text-align:center;text-anchor:middle;fill:#aaaaaa;fill-opacity:1;stroke-width:7.937;stroke-linecap:square;stroke-linejoin:round;paint-order:stroke markers fill"
         d="m 126.26758,58.916016 c -1.1361,0.09136 -1.82108,1.176238 -2.13477,2.162109 -1.40385,0.475435 -1.8088,2.1074 -2.10937,3.386719 -0.12744,1.388646 1.08365,2.505007 2.3793,2.709286 -0.23388,0.423789 -0.60773,1.103381 -0.53163,1.718762 0.0267,1.4682 1.48524,2.269934 2.65428,2.806327 1.52741,0.591449 2.96327,-0.600066 3.98882,-1.59982 1.27803,-1.359982 2.71286,-3.096558 2.29143,-5.098712 0.004,-0.508865 -0.60756,-0.881541 -0.5322,-1.31514 0.55022,-1.044358 0.41401,-2.517902 -0.60156,-3.267578 -0.89777,-0.708933 -2.12216,-0.650463 -3.13862,-1.111224 -0.73128,-0.232164 -1.49293,-0.422272 -2.26568,-0.390729 z" />
      <path
         id="path34841"
         style="font-size:9.525px;line-height:0.7;font-family:'FOT-Yuruka Std';-inkscape-font-specification:'FOT-Yuruka Std';text-align:center;text-anchor:middle;fill:#aaaaaa;fill-opacity:1;stroke-width:7.937;stroke-linecap:square;stroke-linejoin:round;paint-order:stroke markers fill"
         d="m 133.25977,61.822266 c -1.43368,0.166058 -2.1298,1.751442 -2.04688,3.046875 -0.53158,1.680776 1.10854,3.477073 2.82617,3.205078 -0.74225,0.860461 -1.56698,2.106474 -0.88192,3.241865 0.66223,1.07289 1.8213,1.918959 3.06942,2.119463 1.75941,0.03996 2.89134,-1.535318 3.98554,-2.681492 1.41324,-1.678167 2.58147,-3.859454 2.26363,-6.115627 -0.47996,-1.784923 -2.48828,-2.567484 -4.18669,-2.454682 -1.6747,-0.133504 -3.34962,-0.331404 -5.02927,-0.36148 z" />
      <path
         id="path34843"
         style="font-size:9.525px;line-height:0.7;font-family:'FOT-Yuruka Std';-inkscape-font-specification:'FOT-Yuruka Std';text-align:center;text-anchor:middle;fill:#aaaaaa;fill-opacity:1;stroke-width:7.937;stroke-linecap:square;stroke-linejoin:round;paint-order:stroke markers fill"
         d="m 146.85938,64.429688 c -1.66797,0.422588 -3.2773,1.106231 -4.90553,1.674347 -0.92823,0.234606 -1.90821,0.786673 -2.05346,1.827606 -0.15146,1.146018 0.17301,2.435986 0.96727,3.28814 0.26968,0.468153 1.24216,0.295077 1.08546,0.920844 -0.0301,1.214582 0.83932,2.452898 2.11949,2.512395 1.28178,0.303958 3.0432,0.255114 3.64223,-1.15302 0.4675,-0.983872 0.30334,-2.102287 0.49024,-3.146484 1.43795,-0.4658 2.12947,-2.30623 1.34145,-3.603773 -0.51362,-1.110042 -1.26332,-2.414542 -2.68715,-2.320055 z" />
      <path
         id="path34845"
         style="font-size:9.525px;line-height:0.7;font-family:'FOT-Yuruka Std';-inkscape-font-specification:'FOT-Yuruka Std';text-align:center;text-anchor:middle;fill:#aaaaaa;fill-opacity:1;stroke-width:7.937;stroke-linecap:square;stroke-linejoin:round;paint-order:stroke markers fill"
         d="m 150.83789,63.300781 c -1.48166,0.248845 -1.96867,1.923318 -1.97102,3.223184 -0.23262,1.094352 0.38859,2.247953 1.40852,2.692832 -0.36698,1.202718 -1.53374,2.333949 -1.03614,3.664292 0.45304,1.175615 1.67851,1.821293 2.80567,2.195083 1.4185,0.322173 2.72047,-0.640448 3.44272,-1.786116 0.37826,-0.438098 0.61889,-1.074034 0.95181,-1.475603 1.30127,0.189475 2.49453,-0.6848 3.0546,-1.810784 1.06236,-1.47311 1.60775,-3.754373 0.24814,-5.222419 -1.38191,-1.344184 -3.45443,-1.001504 -5.20318,-1.266334 -1.19751,-0.111071 -2.4695,-0.284906 -3.70112,-0.214135 z" />
      <path
         id="path34847"
         style="font-size:9.525px;line-height:0.7;font-family:'FOT-Yuruka Std';-inkscape-font-specification:'FOT-Yuruka Std';text-align:center;text-anchor:middle;fill:#aaaaaa;fill-opacity:1;stroke-width:7.937;stroke-linecap:square;stroke-linejoin:round;paint-order:stroke markers fill"
         d="m 161.20898,63.390625 c -1.39112,0.21687 -2.55712,1.249694 -3.34777,2.362631 -0.66355,1.390331 0.44304,2.809496 1.53314,3.585586 0.12308,0.324024 -0.55981,0.818548 -0.46271,1.333033 -0.0671,1.437665 0.9674,2.625999 1.86719,3.632813 1.02875,1.009973 2.53072,0.412035 3.62361,-0.143221 1.90668,-1.041327 3.94217,-2.151909 5.15764,-4.016936 0.58598,-1.46513 -0.60762,-2.753426 -1.40039,-3.853515 -0.72839,-0.813138 -2.00778,-0.848709 -2.92188,-0.34375 -0.6316,-1.271779 -2.00924,-1.980032 -3.28405,-2.453544 -0.24655,-0.07212 -0.50778,-0.109821 -0.76478,-0.103097 z" />
      <path
         id="path34849"
         style="font-size:9.525px;line-height:0.7;font-family:'FOT-Yuruka Std';-inkscape-font-specification:'FOT-Yuruka Std';text-align:center;text-anchor:middle;fill:#aaaaaa;fill-opacity:1;stroke-width:7.937;stroke-linecap:square;stroke-linejoin:round;paint-order:stroke markers fill"
         d="m 174.23438,60.423828 c -0.94645,0.449163 -2.1456,0.158787 -2.96094,0.9375 -0.36598,0.244474 -0.57796,0.696525 -0.81055,1.003906 -1.38336,0.139647 -3.22331,-0.01891 -3.97851,1.425782 -0.54734,1.047493 -0.27054,2.281196 -0.0352,3.373046 0.20273,0.582753 0.6057,1.124237 1.18164,1.376954 -0.74995,0.814361 -1.96363,1.662409 -1.61524,2.943359 0.31942,1.260172 1.45772,2.166296 2.5858,2.689628 1.58363,0.483916 3.05175,-0.69282 4.05678,-1.783378 1.16818,0.472832 2.5973,1.280602 3.7986,0.448332 1.04172,-0.758656 1.34093,-2.109934 1.75023,-3.256926 0.24719,-1.316346 -0.70474,-2.683086 -2.02734,-2.894531 -0.62425,0.116139 -0.80576,-0.549989 -0.45898,-0.899019 1.64897,-0.62518 2.55532,-3.085621 1.0987,-4.360552 -0.68002,-0.659075 -1.6259,-1.088209 -2.58503,-1.004101 z" />
      <path
         id="path34851"
         style="font-size:6.35px;line-height:0.7;font-family:'FOT-Yuruka Std';-inkscape-font-specification:'FOT-Yuruka Std';text-align:center;text-anchor:middle;fill:#aaaaaa;fill-opacity:1;stroke-width:7.937;stroke-linecap:square;stroke-linejoin:round;paint-order:stroke markers fill"
         d="m 57.376953,74.359375 c -1.005235,0.250458 -2.254755,0.374358 -2.791015,1.396484 -1.232779,-0.0083 -2.440238,0.685467 -3.007813,1.777344 -1.238786,0.897481 -0.843639,2.646557 -0.289256,3.821752 0.298283,0.670074 1.060678,0.833711 1.649426,1.076909 0.564153,0.145219 0.507409,0.790969 0.928893,1.118917 1.056873,1.124002 3.086826,1.539722 4.21875,0.292969 0.853305,-0.812172 1.198461,-1.99107 1.566406,-3.052734 1.019298,-0.718549 1.137815,-2.160345 0.74414,-3.234375 0.554276,-1.803706 -1.265597,-3.467268 -3.019531,-3.197266 z" />
      <path
         id="path34853"
         style="font-size:6.35px;line-height:0.7;font-family:'FOT-Yuruka Std';-inkscape-font-specification:'FOT-Yuruka Std';text-align:center;text-anchor:middle;fill:#aaaaaa;fill-opacity:1;stroke-width:7.937;stroke-linecap:square;stroke-linejoin:round;paint-order:stroke markers fill"
         d="m 63.876953,75.410156 c -1.764917,0.388728 -3.638193,0.481823 -5.301152,1.213694 -1.361273,0.985861 -1.040037,2.988511 -0.322289,4.266063 0.851415,1.23605 2.552078,0.989564 3.789457,0.608134 1.411162,-0.324464 3.175356,-0.235304 4.142578,-1.492188 0.743633,-1.268802 0.308518,-2.963044 -0.578125,-4.035156 -0.468689,-0.414793 -1.108126,-0.61805 -1.730469,-0.560547 z" />
    </g>
    <g
       id="g32593">
      <path
         id="path25930"
         style="font-size:16.51px;line-height:0.7;font-family:'FOT-Yuruka Std';-inkscape-font-specification:'FOT-Yuruka Std';text-align:center;baseline-shift:super;text-anchor:middle;fill:#ffffff;fill-opacity:1;stroke-width:7.937;stroke-linecap:square;stroke-linejoin:round;paint-order:stroke markers fill"
         d="m 40.763672,59.957031 c -1.64134,0.451164 -3.283047,1.08501 -4.685547,2.056641 -0.785072,0.75773 -0.798523,1.988399 -0.433594,2.951172 -0.987775,1.098472 -0.514508,2.698517 0.07706,3.866114 0.37836,1.131096 0.944289,2.432844 2.231538,2.731542 0.44096,0.14828 0.976752,-0.182883 1.104193,0.456322 1.252558,2.000709 3.530835,3.600278 5.984377,3.223759 1.471407,-0.02706 3.233112,-0.98101 3.203218,-2.637892 -0.03152,-1.465663 0.176423,-3.183028 -0.844852,-4.374635 C 47.221522,67.860529 46.300627,67.98477 46.588048,67.51648 47.017393,66.126477 46.1284,64.839476 45.695774,63.576998 45.304845,62.597033 44.402145,61.735645 43.314453,61.726562 42.985025,60.688005 41.868129,59.869079 40.763672,59.957031 Z" />
      <path
         id="path25932"
         style="font-size:16.51px;line-height:0.7;font-family:'FOT-Yuruka Std';-inkscape-font-specification:'FOT-Yuruka Std';text-align:center;baseline-shift:super;text-anchor:middle;fill:#ffffff;fill-opacity:1;stroke-width:7.937;stroke-linecap:square;stroke-linejoin:round;paint-order:stroke markers fill"
         d="m 48.984375,55.232422 c -1.57656,0.304969 -3.404132,0.04453 -4.770008,1.06925 -1.202898,1.165425 -0.607903,2.93125 -0.475782,4.37543 0.504055,3.930475 0.831578,7.891012 1.515321,11.793601 0.601615,1.505273 2.505666,1.665788 3.869141,1.287109 1.302268,-0.112749 3.054931,-0.120616 3.78125,-1.496093 0.112623,-0.709937 0.579417,0.07485 0.95054,0.170327 1.386543,0.810304 3.379247,1.057568 4.598928,-0.187803 0.756521,-0.721271 1.548431,-1.492515 2.009126,-2.435649 C 60.900523,68.532134 59.960982,67.336247 59.066406,66.5625 58.625477,65.249283 58.58893,63.758367 57.634552,62.663984 56.355737,60.776917 54.050244,59.78875 51.865234,59.625 c -0.149764,-1.377939 -0.108518,-3.11356 -1.363281,-4 -0.446724,-0.289655 -0.986472,-0.428959 -1.517578,-0.392578 z" />
      <path
         id="path25934"
         style="font-size:16.51px;line-height:0.7;font-family:'FOT-Yuruka Std';-inkscape-font-specification:'FOT-Yuruka Std';text-align:center;baseline-shift:super;text-anchor:middle;fill:#ffffff;fill-opacity:1;stroke-width:7.937;stroke-linecap:square;stroke-linejoin:round;paint-order:stroke markers fill"
         d="m 62.515625,60.261719 c -3.692459,0.282498 -6.714846,3.975152 -6.185547,7.658203 0.330245,3.137325 2.935924,5.748468 5.990234,6.353516 1.536696,0.473285 3.41324,-0.180895 4.059913,-1.718637 0.347472,-0.53857 0.704078,-1.087846 0.867822,-1.714957 1.82633,-0.406017 3.217496,-2.190255 3.095486,-4.070862 0.199133,-2.971349 -2.051049,-5.941464 -5.048611,-6.333435 -0.912974,-0.181999 -1.851048,-0.224597 -2.779297,-0.173828 z" />
      <path
         id="path25936"
         style="font-size:25.4px;line-height:0.7;font-family:'FOT-Yuruka Std';-inkscape-font-specification:'FOT-Yuruka Std';text-align:center;text-anchor:middle;fill:#ffffff;fill-opacity:1;stroke-width:7.937;stroke-linecap:square;stroke-linejoin:round;paint-order:stroke markers fill"
         d="M 76.822266,65.673828 C 75.22678,65.906433 74.608475,67.62327 74.333984,69 c -1.114372,3.979589 -2.357133,7.927045 -3.335937,11.941406 -0.0914,1.714742 1.663277,2.766456 3.17107,2.944817 1.715553,0.376502 3.419926,1.341611 5.213732,1.003165 1.571417,-0.517442 1.862597,-2.337509 2.239732,-3.724403 0.44472,-1.502114 0.842249,-3.017804 1.305153,-4.514594 1.164336,0.611171 2.767113,0.352766 3.478733,-0.820623 0.849675,-1.142892 1.46125,-2.444432 2.227685,-3.639561 0.621539,-1.288407 0.202491,-3.043455 -1.144559,-3.683192 -2.095478,-1.391366 -4.626252,-1.84078 -7.079122,-2.11195 -1.192467,-0.256426 -2.337402,-0.842456 -3.588205,-0.721237 z" />
      <path
         id="path25938"
         style="font-size:25.4px;line-height:0.7;font-family:'FOT-Yuruka Std';-inkscape-font-specification:'FOT-Yuruka Std';text-align:center;text-anchor:middle;fill:#ffffff;fill-opacity:1;stroke-width:7.937;stroke-linecap:square;stroke-linejoin:round;paint-order:stroke markers fill"
         d="m 88.478516,69.808594 c -1.777854,0.272931 -2.514535,2.155916 -2.880764,3.694465 -0.922444,3.264793 -2.518122,6.589436 -1.798924,10.061394 0.673467,3.117919 3.415059,5.476793 6.474508,6.131869 1.575486,0.3965 3.175145,0.305363 4.619569,1.076953 1.33248,0.516449 2.694346,1.274806 4.157876,1.187663 1.629169,-0.323901 2.176459,-2.090258 2.653649,-3.456452 1.42752,-3.71857 2.99384,-7.388911 4.27995,-11.158783 0.25042,-1.650037 -1.31772,-2.881839 -2.7793,-3.191406 -1.68369,-0.549422 -3.294501,-1.673774 -5.124344,-1.545351 -1.643983,0.343801 -2.148174,2.156444 -2.650597,3.524097 -0.07386,0.129049 0.221207,-0.918782 0.320983,-1.249986 0.420673,-1.320873 0.102219,-3.053928 -1.282973,-3.662054 -1.379463,-0.668543 -2.935886,-0.805779 -4.38838,-1.258718 -0.523446,-0.125401 -1.062835,-0.191886 -1.601253,-0.153691 z" />
      <path
         id="path25940"
         style="font-size:25.4px;line-height:0.7;font-family:'FOT-Yuruka Std';-inkscape-font-specification:'FOT-Yuruka Std';text-align:center;text-anchor:middle;fill:#ffffff;fill-opacity:1;stroke-width:7.937;stroke-linecap:square;stroke-linejoin:round;paint-order:stroke markers fill"
         d="m 113.60547,69.859375 c -3.08301,0.217581 -5.90324,2.298354 -7.16016,5.099609 -1.40231,-0.121148 -2.75559,0.952979 -2.94153,2.351398 -0.47252,1.574581 -1.29847,3.122107 -1.25573,4.795087 0.17793,0.910404 0.89949,1.631085 1.72656,1.998047 -0.52317,2.523238 -1.15511,5.043395 -1.43593,7.603465 0.12686,1.703942 1.93261,2.631895 3.47394,2.681057 1.69061,0.233258 3.42288,0.953953 5.13138,0.529225 1.5645,-0.633843 1.74608,-2.506303 1.95557,-3.956739 0.24435,-1.289942 0.43251,-2.632369 0.75395,-3.882399 1.34916,0.103746 2.65569,-0.905912 2.84993,-2.25433 0.49142,-1.61871 1.34965,-3.218008 1.27702,-4.942936 -0.37081,-0.583098 0.23132,-0.498573 0.6463,-0.696332 1.53734,-0.634058 1.82938,-2.451129 2.49613,-3.787192 0.84652,-1.445937 0.26739,-3.599108 -1.37037,-4.184362 -1.85403,-1.047753 -4.03143,-1.464892 -6.14706,-1.353598 z" />
      <path
         id="path25942"
         style="font-size:25.4px;line-height:0.7;font-family:'FOT-Yuruka Std';-inkscape-font-specification:'FOT-Yuruka Std';text-align:center;text-anchor:middle;fill:#ffffff;fill-opacity:1;stroke-width:7.937;stroke-linecap:square;stroke-linejoin:round;paint-order:stroke markers fill"
         d="m 126.13086,72.019531 c -3.54317,0.03472 -7.33429,1.714815 -8.93945,5.025391 -0.3078,0.369783 -0.19487,0.995786 -0.84375,0.851562 -1.35126,0.22939 -2.27301,1.532288 -2.28842,2.860366 -0.27984,1.541223 -0.88263,3.105074 -0.63736,4.682603 0.28235,0.880312 1.07947,1.507429 1.93945,1.777344 -0.23049,2.5631 -0.56691,5.13533 -0.55029,7.70735 0.31651,1.703332 2.25453,2.40779 3.80444,2.274543 1.70298,0.04154 3.50604,0.558242 5.14624,-0.0815 0.42153,-0.0473 0.83153,-1.165621 0.92187,-0.396485 0.63365,1.521382 2.49002,1.740603 3.9323,1.707009 1.56043,0.05514 3.42288,0.606127 4.97786,-0.117165 1.45152,-0.921498 1.25641,-2.831933 1.40015,-4.318647 0.26757,-3.675642 0.71445,-7.347024 0.79126,-11.030962 -0.0874,-0.479163 -0.70084,-0.79896 -0.11231,-1.18464 1.59939,-2.181468 1.38279,-5.620241 -0.83881,-7.310063 -2.36861,-2.053781 -5.69789,-2.398177 -8.70318,-2.446704 z" />
      <path
         id="path25944"
         style="font-size:25.4px;line-height:0.7;font-family:'FOT-Yuruka Std';-inkscape-font-specification:'FOT-Yuruka Std';text-align:center;text-anchor:middle;fill:#ffffff;fill-opacity:1;stroke-width:7.937;stroke-linecap:square;stroke-linejoin:round;paint-order:stroke markers fill"
         d="m 141.12891,79.808594 c -4.26424,0.184119 -7.88498,3.848142 -8.44507,8.0088 -0.66133,3.911571 1.50361,8.082213 5.08854,9.787988 2.67836,1.375927 5.96218,1.548186 8.75301,0.40243 1.34514,0.765625 3.01426,1.527859 4.56444,0.968122 1.43122,-0.577668 1.90872,-2.146842 2.5139,-3.418553 0.68018,-1.137951 1.38792,-2.702209 0.45486,-3.908943 -0.38946,-0.544761 -1.21995,-0.789417 -1.15234,-1.576172 -0.34901,-2.460717 0.55052,-4.82771 0.41797,-7.291016 -0.10651,-1.476363 -1.5957,-2.327684 -2.94908,-2.384377 -1.82302,-0.07318 -3.65714,-0.303151 -5.47553,-0.198533 -1.22364,-0.336363 -2.50409,-0.468004 -3.7707,-0.389746 z" />
      <path
         id="path25946"
         style="font-size:25.4px;line-height:0.7;font-family:'FOT-Yuruka Std';-inkscape-font-specification:'FOT-Yuruka Std';text-align:center;text-anchor:middle;fill:#ffffff;fill-opacity:1;stroke-width:7.937;stroke-linecap:square;stroke-linejoin:round;paint-order:stroke markers fill"
         d="m 160.91602,77.960938 c -2.504,-0.06105 -4.79747,1.201127 -7.28103,1.309658 -1.32565,0.114058 -2.64256,1.088762 -2.67732,2.506721 -0.0735,1.383015 0.36194,2.730448 0.43455,4.107801 0.46524,3.410762 0.79745,6.844989 1.42419,10.230116 0.60882,1.585001 2.60857,1.869564 4.05586,1.4242 1.70578,-0.31375 3.61122,-0.148437 5.14435,-1.107288 1.05293,-0.858481 0.95487,-2.347632 0.74315,-3.551287 1.41406,2.103964 3.91309,3.573634 6.47601,3.488268 1.88926,-0.242556 2.88334,-2.065198 4.17828,-3.232408 1.00282,-1.100487 1.05302,-3.053151 -0.24273,-3.956313 -0.68401,-0.536155 -1.45154,-1.141974 -1.46596,-2.095402 -0.42496,-2.274141 -1.16607,-4.627355 -2.94938,-6.214449 -2.05533,-2.011738 -4.99241,-2.98711 -7.83997,-2.909617 z" />
      <path
         id="path25948"
         style="font-size:25.4px;line-height:0.7;font-family:'FOT-Yuruka Std';-inkscape-font-specification:'FOT-Yuruka Std';text-align:center;text-anchor:middle;fill:#ffffff;fill-opacity:1;stroke-width:7.937;stroke-linecap:square;stroke-linejoin:round;paint-order:stroke markers fill"
         d="m 177.26367,73.792969 c -3.49788,0.603538 -6.9755,2.645832 -8.51953,5.943359 -0.90193,2.2914 0.0501,5.042216 2.05298,6.425317 0.22337,0.318229 1.22849,0.607762 0.9424,0.885258 -1.11705,0.617192 -1.56198,2.100418 -0.92311,3.218722 0.60004,1.194659 1.62978,2.096166 2.36523,3.201172 0.97562,1.075671 2.61037,1.07533 3.84839,0.49491 2.94019,-1.039136 5.85885,-2.928909 7.11354,-5.896612 0.91135,-2.220062 -0.0309,-4.854149 -1.90594,-6.261464 -0.19894,-0.330638 -1.21721,-0.588108 -0.90755,-0.899334 1.07778,-0.929295 1.16415,-2.71325 0.11749,-3.703317 -0.98027,-1.155116 -1.73296,-2.707117 -3.22101,-3.279105 -0.30983,-0.100558 -0.63726,-0.148016 -0.96289,-0.128906 z" />
      <path
         id="path25917"
         style="font-size:9.525px;line-height:0.7;font-family:'FOT-Yuruka Std';-inkscape-font-specification:'FOT-Yuruka Std';text-align:center;text-anchor:middle;fill:#ffffff;fill-opacity:1;stroke-width:7.937;stroke-linecap:square;stroke-linejoin:round;paint-order:stroke markers fill"
         d="m 126.26758,58.916016 c -1.1361,0.09136 -1.82108,1.176238 -2.13477,2.162109 -1.40385,0.475435 -1.8088,2.1074 -2.10937,3.386719 -0.12744,1.388646 1.08365,2.505007 2.3793,2.709286 -0.23388,0.423789 -0.60773,1.103381 -0.53163,1.718762 0.0267,1.4682 1.48524,2.269934 2.65428,2.806327 1.52741,0.591449 2.96327,-0.600066 3.98882,-1.59982 1.27803,-1.359982 2.71286,-3.096558 2.29143,-5.098712 0.004,-0.508865 -0.60756,-0.881541 -0.5322,-1.31514 0.55022,-1.044358 0.41401,-2.517902 -0.60156,-3.267578 -0.89777,-0.708933 -2.12216,-0.650463 -3.13862,-1.111224 -0.73128,-0.232164 -1.49293,-0.422272 -2.26568,-0.390729 z" />
      <path
         id="path25919"
         style="font-size:9.525px;line-height:0.7;font-family:'FOT-Yuruka Std';-inkscape-font-specification:'FOT-Yuruka Std';text-align:center;text-anchor:middle;fill:#ffffff;fill-opacity:1;stroke-width:7.937;stroke-linecap:square;stroke-linejoin:round;paint-order:stroke markers fill"
         d="m 133.25977,61.822266 c -1.43368,0.166058 -2.1298,1.751442 -2.04688,3.046875 -0.53158,1.680776 1.10854,3.477073 2.82617,3.205078 -0.74225,0.860461 -1.56698,2.106474 -0.88192,3.241865 0.66223,1.07289 1.8213,1.918959 3.06942,2.119463 1.75941,0.03996 2.89134,-1.535318 3.98554,-2.681492 1.41324,-1.678167 2.58147,-3.859454 2.26363,-6.115627 -0.47996,-1.784923 -2.48828,-2.567484 -4.18669,-2.454682 -1.6747,-0.133504 -3.34962,-0.331404 -5.02927,-0.36148 z" />
      <path
         id="path25921"
         style="font-size:9.525px;line-height:0.7;font-family:'FOT-Yuruka Std';-inkscape-font-specification:'FOT-Yuruka Std';text-align:center;text-anchor:middle;fill:#ffffff;fill-opacity:1;stroke-width:7.937;stroke-linecap:square;stroke-linejoin:round;paint-order:stroke markers fill"
         d="m 146.85938,64.429688 c -1.66797,0.422588 -3.2773,1.106231 -4.90553,1.674347 -0.92823,0.234606 -1.90821,0.786673 -2.05346,1.827606 -0.15146,1.146018 0.17301,2.435986 0.96727,3.28814 0.26968,0.468153 1.24216,0.295077 1.08546,0.920844 -0.0301,1.214582 0.83932,2.452898 2.11949,2.512395 1.28178,0.303958 3.0432,0.255114 3.64223,-1.15302 0.4675,-0.983872 0.30334,-2.102287 0.49024,-3.146484 1.43795,-0.4658 2.12947,-2.30623 1.34145,-3.603773 -0.51362,-1.110042 -1.26332,-2.414542 -2.68715,-2.320055 z" />
      <path
         id="path25923"
         style="font-size:9.525px;line-height:0.7;font-family:'FOT-Yuruka Std';-inkscape-font-specification:'FOT-Yuruka Std';text-align:center;text-anchor:middle;fill:#ffffff;fill-opacity:1;stroke-width:7.937;stroke-linecap:square;stroke-linejoin:round;paint-order:stroke markers fill"
         d="m 150.83789,63.300781 c -1.48166,0.248845 -1.96867,1.923318 -1.97102,3.223184 -0.23262,1.094352 0.38859,2.247953 1.40852,2.692832 -0.36698,1.202718 -1.53374,2.333949 -1.03614,3.664292 0.45304,1.175615 1.67851,1.821293 2.80567,2.195083 1.4185,0.322173 2.72047,-0.640448 3.44272,-1.786116 0.37826,-0.438098 0.61889,-1.074034 0.95181,-1.475603 1.30127,0.189475 2.49453,-0.6848 3.0546,-1.810784 1.06236,-1.47311 1.60775,-3.754373 0.24814,-5.222419 -1.38191,-1.344184 -3.45443,-1.001504 -5.20318,-1.266334 -1.19751,-0.111071 -2.4695,-0.284906 -3.70112,-0.214135 z" />
      <path
         id="path25925"
         style="font-size:9.525px;line-height:0.7;font-family:'FOT-Yuruka Std';-inkscape-font-specification:'FOT-Yuruka Std';text-align:center;text-anchor:middle;fill:#ffffff;fill-opacity:1;stroke-width:7.937;stroke-linecap:square;stroke-linejoin:round;paint-order:stroke markers fill"
         d="m 161.20898,63.390625 c -1.39112,0.21687 -2.55712,1.249694 -3.34777,2.362631 -0.66355,1.390331 0.44304,2.809496 1.53314,3.585586 0.12308,0.324024 -0.55981,0.818548 -0.46271,1.333033 -0.0671,1.437665 0.9674,2.625999 1.86719,3.632813 1.02875,1.009973 2.53072,0.412035 3.62361,-0.143221 1.90668,-1.041327 3.94217,-2.151909 5.15764,-4.016936 0.58598,-1.46513 -0.60762,-2.753426 -1.40039,-3.853515 -0.72839,-0.813138 -2.00778,-0.848709 -2.92188,-0.34375 -0.6316,-1.271779 -2.00924,-1.980032 -3.28405,-2.453544 -0.24655,-0.07212 -0.50778,-0.109821 -0.76478,-0.103097 z" />
      <path
         id="path25927"
         style="font-size:9.525px;line-height:0.7;font-family:'FOT-Yuruka Std';-inkscape-font-specification:'FOT-Yuruka Std';text-align:center;text-anchor:middle;fill:#ffffff;fill-opacity:1;stroke-width:7.937;stroke-linecap:square;stroke-linejoin:round;paint-order:stroke markers fill"
         d="m 174.23438,60.423828 c -0.94645,0.449163 -2.1456,0.158787 -2.96094,0.9375 -0.36598,0.244474 -0.57796,0.696525 -0.81055,1.003906 -1.38336,0.139647 -3.22331,-0.01891 -3.97851,1.425782 -0.54734,1.047493 -0.27054,2.281196 -0.0352,3.373046 0.20273,0.582753 0.6057,1.124237 1.18164,1.376954 -0.74995,0.814361 -1.96363,1.662409 -1.61524,2.943359 0.31942,1.260172 1.45772,2.166296 2.5858,2.689628 1.58363,0.483916 3.05175,-0.69282 4.05678,-1.783378 1.16818,0.472832 2.5973,1.280602 3.7986,0.448332 1.04172,-0.758656 1.34093,-2.109934 1.75023,-3.256926 0.24719,-1.316346 -0.70474,-2.683086 -2.02734,-2.894531 -0.62425,0.116139 -0.80576,-0.549989 -0.45898,-0.899019 1.64897,-0.62518 2.55532,-3.085621 1.0987,-4.360552 -0.68002,-0.659075 -1.6259,-1.088209 -2.58503,-1.004101 z" />
      <path
         id="path25912"
         style="font-size:6.35px;line-height:0.7;font-family:'FOT-Yuruka Std';-inkscape-font-specification:'FOT-Yuruka Std';text-align:center;text-anchor:middle;fill:#ffffff;fill-opacity:1;stroke-width:7.937;stroke-linecap:square;stroke-linejoin:round;paint-order:stroke markers fill"
         d="m 57.376953,74.359375 c -1.005235,0.250458 -2.254755,0.374358 -2.791015,1.396484 -1.232779,-0.0083 -2.440238,0.685467 -3.007813,1.777344 -1.238786,0.897481 -0.843639,2.646557 -0.289256,3.821752 0.298283,0.670074 1.060678,0.833711 1.649426,1.076909 0.564153,0.145219 0.507409,0.790969 0.928893,1.118917 1.056873,1.124002 3.086826,1.539722 4.21875,0.292969 0.853305,-0.812172 1.198461,-1.99107 1.566406,-3.052734 1.019298,-0.718549 1.137815,-2.160345 0.74414,-3.234375 0.554276,-1.803706 -1.265597,-3.467268 -3.019531,-3.197266 z" />
      <path
         id="path25914"
         style="font-size:6.35px;line-height:0.7;font-family:'FOT-Yuruka Std';-inkscape-font-specification:'FOT-Yuruka Std';text-align:center;text-anchor:middle;fill:#ffffff;fill-opacity:1;stroke-width:7.937;stroke-linecap:square;stroke-linejoin:round;paint-order:stroke markers fill"
         d="m 63.876953,75.410156 c -1.764917,0.388728 -3.638193,0.481823 -5.301152,1.213694 -1.361273,0.985861 -1.040037,2.988511 -0.322289,4.266063 0.851415,1.23605 2.552078,0.989564 3.789457,0.608134 1.411162,-0.324464 3.175356,-0.235304 4.142578,-1.492188 0.743633,-1.268802 0.308518,-2.963044 -0.578125,-4.035156 -0.468689,-0.414793 -1.108126,-0.61805 -1.730469,-0.560547 z" />
    </g>
    <text
       xml:space="preserve"
       style="font-style:normal;font-variant:normal;font-weight:normal;font-stretch:normal;font-size:25.4px;line-height:0.7;font-family:'FOT-Yuruka Std';-inkscape-font-specification:'FOT-Yuruka Std';text-align:center;text-anchor:middle;fill:#6f00d5;fill-opacity:1;stroke:none;stroke-width:7.937;stroke-linecap:square;stroke-linejoin:round;stroke-dasharray:none;stroke-dashoffset:0;stroke-opacity:1;paint-order:stroke markers fill;stop-color:#000000"
       id="text186"
       transform="translate(2.9176718,-10.583333)"><textPath
         xlink:href="#path5520"
         startOffset="50%"
         id="textPath5522"><tspan
           style="font-style:normal;font-variant:normal;font-weight:normal;font-stretch:normal;font-size:25.4px;font-family:'FOT-Yuruka Std';-inkscape-font-specification:'FOT-Yuruka Std';fill:#6f00d5;fill-opacity:1;stroke:none;stroke-width:7.937;stroke-dasharray:none;stroke-dashoffset:0;stroke-opacity:1;paint-order:stroke markers fill"
           id="tspan188"
           dx="0 0 0 1.1225317 -6.5481029"
           dy="0 0 0 -4.2333331"><tspan
   style="font-size:65%;baseline-shift:super;fill:#6f00d5;fill-opacity:1;stroke:none;stroke-width:7.937;stroke-dasharray:none;paint-order:stroke markers fill;stroke-opacity:1"
   id="tspan5464"
   dx="5.9868369 -3.9288628 -3.1805079"
   dy="4.2333331">the</tspan> ruffians</tspan></textPath></text>
    <path
       style="fill:none;fill-opacity:1;stroke:none;stroke-width:1.058;stroke-linecap:square;stroke-linejoin:round;stroke-dasharray:none;stroke-dashoffset:0;stroke-opacity:1;stop-color:#000000"
       d="M 34.424315,98.034461 C 56.126601,61.690795 99.156987,129.65245 184.28234,97.473195"
       id="path5520"
       sodipodi:nodetypes="cc" />
    <path
       d="m 79.82324,82.033556 c 5.130799,3.683 8.458199,6.858 11.074399,11.7856 2.6162,-4.9276 5.943603,-8.1026 11.074401,-11.7856 -5.130798,-3.683 -8.458201,-6.8326 -11.074401,-11.7602 -2.6162,4.9276 -5.9436,8.0772 -11.074399,11.7602 z"
       id="path16863"
       style="font-size:25.4px;line-height:0.7;font-family:'FOT-Yuruka Std';-inkscape-font-specification:'FOT-Yuruka Std';text-align:center;text-anchor:middle;fill:#8725e3;stroke-width:7.9375;stroke-linecap:square;stroke-linejoin:round;paint-order:stroke markers fill;fill-opacity:1"
       clip-path="url(#clipPath18342)" />
    <path
       d="m 120.39473,86.97051 c -0.30953,-2.6849 -1.8935,-4.237439 -3.78332,-4.741167 -2.74883,-0.732695 -6.08642,0.743488 -7.02192,4.25315 -1.70744,6.405747 6.39845,9.722979 6.5432,16.675007 3.54817,-5.915112 12.26738,-4.800215 13.97482,-11.205962 0.9355,-3.509662 -1.32273,-6.477403 -4.07155,-7.210098 -1.91436,-0.51027 -4.06094,0.0479 -5.5676,2.248696 z"
       id="path16865"
       style="font-size:25.4px;line-height:0.7;font-family:'FOT-Yuruka Std';-inkscape-font-specification:'FOT-Yuruka Std';text-align:center;text-anchor:middle;fill:#8725e3;stroke-width:7.9375;stroke-linecap:square;stroke-linejoin:round;paint-order:stroke markers fill;fill-opacity:1"
       clip-path="url(#clipPath18338)" />
    <path
       d="m 68.31704,78.831358 c -0.127,2.489198 -0.4572,4.343398 -3.2512,5.765798 1.7526,-0.3302 2.3114,-0.3302 3.81,-0.3302 1.4986,0 2.1082,0 3.8608,0.3302 -2.921,-1.4732 -3.3274,-3.3782 -3.3274,-8.229598 0.6858,0.1016 1.3208,0.4318 1.6002,0.9144 1.016,1.7526 2.2606,3.1242 4.318,3.1242 2.7432,0 4.4958,-2.032 4.4958,-4.4958 0,-2.4638 -1.7526,-4.4958 -4.4958,-4.4958 -2.0574,0 -3.302,1.397 -4.318,3.1242 -0.3048,0.508 -0.889,0.889 -1.6002,0.9652 0.0762,-2.1082 0.381,-3.1496 1.1938,-3.6576 1.7526,-1.0922 2.921,-2.2606 2.921,-4.318 0,-2.7432 -2.159,-4.4958 -4.6228,-4.4958 -2.4638,0 -4.6228,1.7526 -4.6228,4.4958 0,2.0574 1.1176,3.175 2.921,4.318 0.889,0.5588 1.1684,1.5494 1.2192,3.6322 -0.7366,-0.127 -1.3208,-0.381 -1.651,-0.9398 -1.016,-1.7272 -2.2606,-3.1242 -4.318,-3.1242 -2.7432,0 -4.4958,2.032 -4.4958,4.4958 0,2.4638 1.7526,4.4958 4.4958,4.4958 2.0574,0 3.302,-1.3716 4.318,-3.1242 0.3048,-0.5334 0.889,-0.7874 1.651,-0.9144 z"
       id="path16867"
       style="font-size:25.4px;line-height:0.7;font-family:'FOT-Yuruka Std';-inkscape-font-specification:'FOT-Yuruka Std';text-align:center;text-anchor:middle;fill:#8725e3;stroke-width:7.9375;stroke-linecap:square;stroke-linejoin:round;paint-order:stroke markers fill;fill-opacity:1"
       clip-path="url(#clipPath18334)" />
    <path
       d="m 155.10117,100.63476 c 1.0414,1.4986 2.667,2.2098 4.318,2.2098 2.7432,0 5.4864,-1.9812 5.4864,-5.537203 0,-6.1468 -8.7122,-7.2136 -10.6172,-13.3604 -1.9304,6.1722 -10.6172,7.2136 -10.6172,13.3604 0,3.556003 2.7432,5.537203 5.4864,5.537203 1.651,0 3.2766,-0.7112 4.318,-2.2098 h 0.1778 c 0,2.4384 -0.381,4.3434 -3.175,5.7658 1.7526,-0.3302 2.3114,-0.381 3.81,-0.381 1.4986,0 2.0574,0.0508 3.81,0.381 -2.794,-1.4224 -3.175,-3.3274 -3.175,-5.7658 z"
       id="path16869"
       style="font-size:25.4px;line-height:0.7;font-family:'FOT-Yuruka Std';-inkscape-font-specification:'FOT-Yuruka Std';text-align:center;text-anchor:middle;fill:#8725e3;stroke-width:7.9375;stroke-linecap:square;stroke-linejoin:round;paint-order:stroke markers fill;fill-opacity:1"
       clip-path="url(#clipPath18330)" />
    <text
       xml:space="preserve"
       style="font-style:normal;font-variant:normal;font-weight:normal;font-stretch:normal;font-size:9.525px;line-height:0.7;font-family:'FOT-Yuruka Std';-inkscape-font-specification:'FOT-Yuruka Std';text-align:center;text-anchor:middle;fill:#8725e3;fill-opacity:1;stroke:none;stroke-width:7.937;stroke-linecap:square;stroke-linejoin:round;stroke-dasharray:none;stroke-dashoffset:0;stroke-opacity:1;paint-order:stroke markers fill;stop-color:#000000"
       id="text25820"
       transform="translate(12.236979,6.0192708)"><textPath
         xlink:href="#path25889"
         startOffset="50%"
         id="textPath25891"><tspan
           id="tspan25818"
           style="font-size:9.525px;stroke-width:7.937">ラフィアンズ</tspan></textPath></text>
    <text
       xml:space="preserve"
       style="font-style:normal;font-variant:normal;font-weight:normal;font-stretch:normal;font-size:6.35px;line-height:0.7;font-family:'FOT-Yuruka Std';-inkscape-font-specification:'FOT-Yuruka Std';text-align:center;text-anchor:middle;fill:#8725e3;fill-opacity:1;stroke:none;stroke-width:7.937;stroke-linecap:square;stroke-linejoin:round;stroke-dasharray:none;stroke-dashoffset:0;stroke-opacity:1;paint-order:stroke markers fill;stop-color:#000000"
       x="43.018551"
       y="91.276428"
       id="text25824"
       transform="rotate(-10.827984)"><tspan
         sodipodi:role="line"
         id="tspan25822"
         style="font-size:6.35px;stroke-width:7.937"
         x="43.018551"
         y="91.276428">ザー</tspan></text>
    <path
       style="fill:none;fill-opacity:1;stroke:none;stroke-width:7.937;stroke-linecap:square;stroke-linejoin:round;stroke-dasharray:none;stroke-dashoffset:0;stroke-opacity:1;paint-order:stroke markers fill;stop-color:#000000"
       d="M 95.977603,56.753124 C 121.89132,67.290855 152.22617,70.860257 178.5276,59.597395"
       id="path25889" />
  </g>
</svg>
