<?xml version="1.0" encoding="UTF-8" standalone="no"?>
<!-- Created with Inkscape (http://www.inkscape.org/) -->

<svg
   width="800"
   height="600"
   viewBox="0 0 211.66666 158.75"
   version="1.1"
   id="svg5"
   inkscape:version="1.2.1 (9c6d41e410, 2022-07-14)"
   sodipodi:docname="uwu_plain.svg"
   xmlns:inkscape="http://www.inkscape.org/namespaces/inkscape"
   xmlns:sodipodi="http://sodipodi.sourceforge.net/DTD/sodipodi-0.dtd"
   xmlns="http://www.w3.org/2000/svg"
   xmlns:svg="http://www.w3.org/2000/svg">
  <sodipodi:namedview
     id="namedview7"
     pagecolor="#570773"
     bordercolor="#000000"
     borderopacity="0.25"
     inkscape:showpageshadow="2"
     inkscape:pageopacity="0"
     inkscape:pagecheckerboard="0"
     inkscape:deskcolor="#d1d1d1"
     inkscape:document-units="mm"
     showgrid="false"
     inkscape:zoom="2.8284271"
     inkscape:cx="377.94857"
     inkscape:cy="288.14601"
     inkscape:window-width="3840"
     inkscape:window-height="2054"
     inkscape:window-x="3829"
     inkscape:window-y="-11"
     inkscape:window-maximized="1"
     inkscape:current-layer="layer1" />
  <defs
     id="defs2" />
  <g
     inkscape:label="Layer 1"
     inkscape:groupmode="layer"
     id="layer1">
    <g
       id="g34855"
       transform="translate(0,1.0583333)">
      <path
         id="path34819"
         style="font-size:16.51px;line-height:0.7;font-family:'FOT-Yuruka Std';-inkscape-font-specification:'FOT-Yuruka Std';text-align:center;baseline-shift:super;text-anchor:middle;fill:#aaaaaa;fill-opacity:1;stroke-width:7.937;stroke-linecap:square;stroke-linejoin:round;paint-order:stroke markers fill"
         d="m 40.763672,59.957031 c -1.64134,0.451164 -3.283047,1.08501 -4.685547,2.056641 -0.785072,0.75773 -0.798523,1.988399 -0.433594,2.951172 -0.987775,1.098472 -0.514508,2.698517 0.07706,3.866114 0.37836,1.131096 0.944289,2.432844 2.231538,2.731542 0.44096,0.14828 0.976752,-0.182883 1.104193,0.456322 1.252558,2.000709 3.530835,3.600278 5.984377,3.223759 1.471407,-0.02706 3.233112,-0.98101 3.203218,-2.637892 -0.03152,-1.465663 0.176423,-3.183028 -0.844852,-4.374635 C 47.221522,67.860529 46.300627,67.98477 46.588048,67.51648 47.017393,66.126477 46.1284,64.839476 45.695774,63.576998 45.304845,62.597033 44.402145,61.735645 43.314453,61.726562 42.985025,60.688005 41.868129,59.869079 40.763672,59.957031 Z" />
      <path
         id="path34821"
         style="font-size:16.51px;line-height:0.7;font-family:'FOT-Yuruka Std';-inkscape-font-specification:'FOT-Yuruka Std';text-align:center;baseline-shift:super;text-anchor:middle;fill:#aaaaaa;fill-opacity:1;stroke-width:7.937;stroke-linecap:square;stroke-linejoin:round;paint-order:stroke markers fill"
         d="m 48.984375,55.232422 c -1.57656,0.304969 -3.404132,0.04453 -4.770008,1.06925 -1.202898,1.165425 -0.607903,2.93125 -0.475782,4.37543 0.504055,3.930475 0.831578,7.891012 1.515321,11.793601 0.601615,1.505273 2.505666,1.665788 3.869141,1.287109 1.302268,-0.112749 3.054931,-0.120616 3.78125,-1.496093 0.112623,-0.709937 0.579417,0.07485 0.95054,0.170327 1.386543,0.810304 3.379247,1.057568 4.598928,-0.187803 0.756521,-0.721271 1.548431,-1.492515 2.009126,-2.435649 C 60.900523,68.532134 59.960982,67.336247 59.066406,66.5625 58.625477,65.249283 58.58893,63.758367 57.634552,62.663984 56.355737,60.776917 54.050244,59.78875 51.865234,59.625 c -0.149764,-1.377939 -0.108518,-3.11356 -1.363281,-4 -0.446724,-0.289655 -0.986472,-0.428959 -1.517578,-0.392578 z" />
      <path
         id="path34823"
         style="font-size:16.51px;line-height:0.7;font-family:'FOT-Yuruka Std';-inkscape-font-specification:'FOT-Yuruka Std';text-align:center;baseline-shift:super;text-anchor:middle;fill:#aaaaaa;fill-opacity:1;stroke-width:7.937;stroke-linecap:square;stroke-linejoin:round;paint-order:stroke markers fill"
         d="m 62.515625,60.261719 c -3.692459,0.282498 -6.714846,3.975152 -6.185547,7.658203 0.330245,3.137325 2.935924,5.748468 5.990234,6.353516 1.536696,0.473285 3.41324,-0.180895 4.059913,-1.718637 0.347472,-0.53857 0.704078,-1.087846 0.867822,-1.714957 1.82633,-0.406017 3.217496,-2.190255 3.095486,-4.070862 0.199133,-2.971349 -2.051049,-5.941464 -5.048611,-6.333435 -0.912974,-0.181999 -1.851048,-0.224597 -2.779297,-0.173828 z" />
      <path
         id="path34825"
         style="font-size:25.4px;line-height:0.7;font-family:'FOT-Yuruka Std';-inkscape-font-specification:'FOT-Yuruka Std';text-align:center;text-anchor:middle;fill:#aaaaaa;fill-opacity:1;stroke-width:7.937;stroke-linecap:square;stroke-linejoin:round;paint-order:stroke markers fill"
         d="M 76.822266,65.673828 C 75.22678,65.906433 74.608475,67.62327 74.333984,69 c -1.114372,3.979589 -2.357133,7.927045 -3.335937,11.941406 -0.0914,1.714742 1.663277,2.766456 3.17107,2.944817 1.715553,0.376502 3.419926,1.341611 5.213732,1.003165 1.571417,-0.517442 1.862597,-2.337509 2.239732,-3.724403 0.44472,-1.502114 0.842249,-3.017804 1.305153,-4.514594 1.164336,0.611171 2.767113,0.352766 3.478733,-0.820623 0.849675,-1.142892 1.46125,-2.444432 2.227685,-3.639561 0.621539,-1.288407 0.202491,-3.043455 -1.144559,-3.683192 -2.095478,-1.391366 -4.626252,-1.84078 -7.079122,-2.11195 -1.192467,-0.256426 -2.337402,-0.842456 -3.588205,-0.721237 z" />
      <path
         id="path34827"
         style="font-size:25.4px;line-height:0.7;font-family:'FOT-Yuruka Std';-inkscape-font-specification:'FOT-Yuruka Std';text-align:center;text-anchor:middle;fill:#aaaaaa;fill-opacity:1;stroke-width:7.937;stroke-linecap:square;stroke-linejoin:round;paint-order:stroke markers fill"
         d="m 88.478516,69.808594 c -1.777854,0.272931 -2.514535,2.155916 -2.880764,3.694465 -0.922444,3.264793 -2.518122,6.589436 -1.798924,10.061394 0.673467,3.117919 3.415059,5.476793 6.474508,6.131869 1.575486,0.3965 3.175145,0.305363 4.619569,1.076953 1.33248,0.516449 2.694346,1.274806 4.157876,1.187663 1.629169,-0.323901 2.176459,-2.090258 2.653649,-3.456452 1.42752,-3.71857 2.99384,-7.388911 4.27995,-11.158783 0.25042,-1.650037 -1.31772,-2.881839 -2.7793,-3.191406 -1.68369,-0.549422 -3.294501,-1.673774 -5.124344,-1.545351 -1.643983,0.343801 -2.148174,2.156444 -2.650597,3.524097 -0.07386,0.129049 0.221207,-0.918782 0.320983,-1.249986 0.420673,-1.320873 0.102219,-3.053928 -1.282973,-3.662054 -1.379463,-0.668543 -2.935886,-0.805779 -4.38838,-1.258718 -0.523446,-0.125401 -1.062835,-0.191886 -1.601253,-0.153691 z" />
      <path
         id="path34829"
         style="font-size:25.4px;line-height:0.7;font-family:'FOT-Yuruka Std';-inkscape-font-specification:'FOT-Yuruka Std';text-align:center;text-anchor:middle;fill:#aaaaaa;fill-opacity:1;stroke-width:7.937;stroke-linecap:square;stroke-linejoin:round;paint-order:stroke markers fill"
         d="m 113.60547,69.859375 c -3.08301,0.217581 -5.90324,2.298354 -7.16016,5.099609 -1.40231,-0.121148 -2.75559,0.952979 -2.94153,2.351398 -0.47252,1.574581 -1.29847,3.122107 -1.25573,4.795087 0.17793,0.910404 0.89949,1.631085 1.72656,1.998047 -0.52317,2.523238 -1.15511,5.043395 -1.43593,7.603465 0.12686,1.703942 1.93261,2.631895 3.47394,2.681057 1.69061,0.233258 3.42288,0.953953 5.13138,0.529225 1.5645,-0.633843 1.74608,-2.506303 1.95557,-3.956739 0.24435,-1.289942 0.43251,-2.632369 0.75395,-3.882399 1.34916,0.103746 2.65569,-0.905912 2.84993,-2.25433 0.49142,-1.61871 1.34965,-3.218008 1.27702,-4.942936 -0.37081,-0.583098 0.23132,-0.498573 0.6463,-0.696332 1.53734,-0.634058 1.82938,-2.451129 2.49613,-3.787192 0.84652,-1.445937 0.26739,-3.599108 -1.37037,-4.184362 -1.85403,-1.047753 -4.03143,-1.464892 -6.14706,-1.353598 z" />
      <path
         id="path34831"
         style="font-size:25.4px;line-height:0.7;font-family:'FOT-Yuruka Std';-inkscape-font-specification:'FOT-Yuruka Std';text-align:center;text-anchor:middle;fill:#aaaaaa;fill-opacity:1;stroke-width:7.937;stroke-linecap:square;stroke-linejoin:round;paint-order:stroke markers fill"
         d="m 126.13086,72.019531 c -3.54317,0.03472 -7.33429,1.714815 -8.93945,5.025391 -0.3078,0.369783 -0.19487,0.995786 -0.84375,0.851562 -1.35126,0.22939 -2.27301,1.532288 -2.28842,2.860366 -0.27984,1.541223 -0.88263,3.105074 -0.63736,4.682603 0.28235,0.880312 1.07947,1.507429 1.93945,1.777344 -0.23049,2.5631 -0.56691,5.13533 -0.55029,7.70735 0.31651,1.703332 2.25453,2.40779 3.80444,2.274543 1.70298,0.04154 3.50604,0.558242 5.14624,-0.0815 0.42153,-0.0473 0.83153,-1.165621 0.92187,-0.396485 0.63365,1.521382 2.49002,1.740603 3.9323,1.707009 1.56043,0.05514 3.42288,0.606127 4.97786,-0.117165 1.45152,-0.921498 1.25641,-2.831933 1.40015,-4.318647 0.26757,-3.675642 0.71445,-7.347024 0.79126,-11.030962 -0.0874,-0.479163 -0.70084,-0.79896 -0.11231,-1.18464 1.59939,-2.181468 1.38279,-5.620241 -0.83881,-7.310063 -2.36861,-2.053781 -5.69789,-2.398177 -8.70318,-2.446704 z" />
      <path
         id="path34833"
         style="font-size:25.4px;line-height:0.7;font-family:'FOT-Yuruka Std';-inkscape-font-specification:'FOT-Yuruka Std';text-align:center;text-anchor:middle;fill:#aaaaaa;fill-opacity:1;stroke-width:7.937;stroke-linecap:square;stroke-linejoin:round;paint-order:stroke markers fill"
         d="m 141.12891,79.808594 c -4.26424,0.184119 -7.88498,3.848142 -8.44507,8.0088 -0.66133,3.911571 1.50361,8.082213 5.08854,9.787988 2.67836,1.375927 5.96218,1.548186 8.75301,0.40243 1.34514,0.765625 3.01426,1.527859 4.56444,0.968122 1.43122,-0.577668 1.90872,-2.146842 2.5139,-3.418553 0.68018,-1.137951 1.38792,-2.702209 0.45486,-3.908943 -0.38946,-0.544761 -1.21995,-0.789417 -1.15234,-1.576172 -0.34901,-2.460717 0.55052,-4.82771 0.41797,-7.291016 -0.10651,-1.476363 -1.5957,-2.327684 -2.94908,-2.384377 -1.82302,-0.07318 -3.65714,-0.303151 -5.47553,-0.198533 -1.22364,-0.336363 -2.50409,-0.468004 -3.7707,-0.389746 z" />
      <path
         id="path34835"
         style="font-size:25.4px;line-height:0.7;font-family:'FOT-Yuruka Std';-inkscape-font-specification:'FOT-Yuruka Std';text-align:center;text-anchor:middle;fill:#aaaaaa;fill-opacity:1;stroke-width:7.937;stroke-linecap:square;stroke-linejoin:round;paint-order:stroke markers fill"
         d="m 160.91602,77.960938 c -2.504,-0.06105 -4.79747,1.201127 -7.28103,1.309658 -1.32565,0.114058 -2.64256,1.088762 -2.67732,2.506721 -0.0735,1.383015 0.36194,2.730448 0.43455,4.107801 0.46524,3.410762 0.79745,6.844989 1.42419,10.230116 0.60882,1.585001 2.60857,1.869564 4.05586,1.4242 1.70578,-0.31375 3.61122,-0.148437 5.14435,-1.107288 1.05293,-0.858481 0.95487,-2.347632 0.74315,-3.551287 1.41406,2.103964 3.91309,3.573634 6.47601,3.488268 1.88926,-0.242556 2.88334,-2.065198 4.17828,-3.232408 1.00282,-1.100487 1.05302,-3.053151 -0.24273,-3.956313 -0.68401,-0.536155 -1.45154,-1.141974 -1.46596,-2.095402 -0.42496,-2.274141 -1.16607,-4.627355 -2.94938,-6.214449 -2.05533,-2.011738 -4.99241,-2.98711 -7.83997,-2.909617 z" />
      <path
         id="path34837"
         style="font-size:25.4px;line-height:0.7;font-family:'FOT-Yuruka Std';-inkscape-font-specification:'FOT-Yuruka Std';text-align:center;text-anchor:middle;fill:#aaaaaa;fill-opacity:1;stroke-width:7.937;stroke-linecap:square;stroke-linejoin:round;paint-order:stroke markers fill"
         d="m 177.26367,73.792969 c -3.49788,0.603538 -6.9755,2.645832 -8.51953,5.943359 -0.90193,2.2914 0.0501,5.042216 2.05298,6.425317 0.22337,0.318229 1.22849,0.607762 0.9424,0.885258 -1.11705,0.617192 -1.56198,2.100418 -0.92311,3.218722 0.60004,1.194659 1.62978,2.096166 2.36523,3.201172 0.97562,1.075671 2.61037,1.07533 3.84839,0.49491 2.94019,-1.039136 5.85885,-2.928909 7.11354,-5.896612 0.91135,-2.220062 -0.0309,-4.854149 -1.90594,-6.261464 -0.19894,-0.330638 -1.21721,-0.588108 -0.90755,-0.899334 1.07778,-0.929295 1.16415,-2.71325 0.11749,-3.703317 -0.98027,-1.155116 -1.73296,-2.707117 -3.22101,-3.279105 -0.30983,-0.100558 -0.63726,-0.148016 -0.96289,-0.128906 z" />
      <path
         id="path34839"
         style="font-size:9.525px;line-height:0.7;font-family:'FOT-Yuruka Std';-inkscape-font-specification:'FOT-Yuruka Std';text-align:center;text-anchor:middle;fill:#aaaaaa;fill-opacity:1;stroke-width:7.937;stroke-linecap:square;stroke-linejoin:round;paint-order:stroke markers fill"
         d="m 126.26758,58.916016 c -1.1361,0.09136 -1.82108,1.176238 -2.13477,2.162109 -1.40385,0.475435 -1.8088,2.1074 -2.10937,3.386719 -0.12744,1.388646 1.08365,2.505007 2.3793,2.709286 -0.23388,0.423789 -0.60773,1.103381 -0.53163,1.718762 0.0267,1.4682 1.48524,2.269934 2.65428,2.806327 1.52741,0.591449 2.96327,-0.600066 3.98882,-1.59982 1.27803,-1.359982 2.71286,-3.096558 2.29143,-5.098712 0.004,-0.508865 -0.60756,-0.881541 -0.5322,-1.31514 0.55022,-1.044358 0.41401,-2.517902 -0.60156,-3.267578 -0.89777,-0.708933 -2.12216,-0.650463 -3.13862,-1.111224 -0.73128,-0.232164 -1.49293,-0.422272 -2.26568,-0.390729 z" />
      <path
         id="path34841"
         style="font-size:9.525px;line-height:0.7;font-family:'FOT-Yuruka Std';-inkscape-font-specification:'FOT-Yuruka Std';text-align:center;text-anchor:middle;fill:#aaaaaa;fill-opacity:1;stroke-width:7.937;stroke-linecap:square;stroke-linejoin:round;paint-order:stroke markers fill"
         d="m 133.25977,61.822266 c -1.43368,0.166058 -2.1298,1.751442 -2.04688,3.046875 -0.53158,1.680776 1.10854,3.477073 2.82617,3.205078 -0.74225,0.860461 -1.56698,2.106474 -0.88192,3.241865 0.66223,1.07289 1.8213,1.918959 3.06942,2.119463 1.75941,0.03996 2.89134,-1.535318 3.98554,-2.681492 1.41324,-1.678167 2.58147,-3.859454 2.26363,-6.115627 -0.47996,-1.784923 -2.48828,-2.567484 -4.18669,-2.454682 -1.6747,-0.133504 -3.34962,-0.331404 -5.02927,-0.36148 z" />
      <path
         id="path34843"
         style="font-size:9.525px;line-height:0.7;font-family:'FOT-Yuruka Std';-inkscape-font-specification:'FOT-Yuruka Std';text-align:center;text-anchor:middle;fill:#aaaaaa;fill-opacity:1;stroke-width:7.937;stroke-linecap:square;stroke-linejoin:round;paint-order:stroke markers fill"
         d="m 146.85938,64.429688 c -1.66797,0.422588 -3.2773,1.106231 -4.90553,1.674347 -0.92823,0.234606 -1.90821,0.786673 -2.05346,1.827606 -0.15146,1.146018 0.17301,2.435986 0.96727,3.28814 0.26968,0.468153 1.24216,0.295077 1.08546,0.920844 -0.0301,1.214582 0.83932,2.452898 2.11949,2.512395 1.28178,0.303958 3.0432,0.255114 3.64223,-1.15302 0.4675,-0.983872 0.30334,-2.102287 0.49024,-3.146484 1.43795,-0.4658 2.12947,-2.30623 1.34145,-3.603773 -0.51362,-1.110042 -1.26332,-2.414542 -2.68715,-2.320055 z" />
      <path
         id="path34845"
         style="font-size:9.525px;line-height:0.7;font-family:'FOT-Yuruka Std';-inkscape-font-specification:'FOT-Yuruka Std';text-align:center;text-anchor:middle;fill:#aaaaaa;fill-opacity:1;stroke-width:7.937;stroke-linecap:square;stroke-linejoin:round;paint-order:stroke markers fill"
         d="m 150.83789,63.300781 c -1.48166,0.248845 -1.96867,1.923318 -1.97102,3.223184 -0.23262,1.094352 0.38859,2.247953 1.40852,2.692832 -0.36698,1.202718 -1.53374,2.333949 -1.03614,3.664292 0.45304,1.175615 1.67851,1.821293 2.80567,2.195083 1.4185,0.322173 2.72047,-0.640448 3.44272,-1.786116 0.37826,-0.438098 0.61889,-1.074034 0.95181,-1.475603 1.30127,0.189475 2.49453,-0.6848 3.0546,-1.810784 1.06236,-1.47311 1.60775,-3.754373 0.24814,-5.222419 -1.38191,-1.344184 -3.45443,-1.001504 -5.20318,-1.266334 -1.19751,-0.111071 -2.4695,-0.284906 -3.70112,-0.214135 z" />
      <path
         id="path34847"
         style="font-size:9.525px;line-height:0.7;font-family:'FOT-Yuruka Std';-inkscape-font-specification:'FOT-Yuruka Std';text-align:center;text-anchor:middle;fill:#aaaaaa;fill-opacity:1;stroke-width:7.937;stroke-linecap:square;stroke-linejoin:round;paint-order:stroke markers fill"
         d="m 161.20898,63.390625 c -1.39112,0.21687 -2.55712,1.249694 -3.34777,2.362631 -0.66355,1.390331 0.44304,2.809496 1.53314,3.585586 0.12308,0.324024 -0.55981,0.818548 -0.46271,1.333033 -0.0671,1.437665 0.9674,2.625999 1.86719,3.632813 1.02875,1.009973 2.53072,0.412035 3.62361,-0.143221 1.90668,-1.041327 3.94217,-2.151909 5.15764,-4.016936 0.58598,-1.46513 -0.60762,-2.753426 -1.40039,-3.853515 -0.72839,-0.813138 -2.00778,-0.848709 -2.92188,-0.34375 -0.6316,-1.271779 -2.00924,-1.980032 -3.28405,-2.453544 -0.24655,-0.07212 -0.50778,-0.109821 -0.76478,-0.103097 z" />
      <path
         id="path34849"
         style="font-size:9.525px;line-height:0.7;font-family:'FOT-Yuruka Std';-inkscape-font-specification:'FOT-Yuruka Std';text-align:center;text-anchor:middle;fill:#aaaaaa;fill-opacity:1;stroke-width:7.937;stroke-linecap:square;stroke-linejoin:round;paint-order:stroke markers fill"
         d="m 174.23438,60.423828 c -0.94645,0.449163 -2.1456,0.158787 -2.96094,0.9375 -0.36598,0.244474 -0.57796,0.696525 -0.81055,1.003906 -1.38336,0.139647 -3.22331,-0.01891 -3.97851,1.425782 -0.54734,1.047493 -0.27054,2.281196 -0.0352,3.373046 0.20273,0.582753 0.6057,1.124237 1.18164,1.376954 -0.74995,0.814361 -1.96363,1.662409 -1.61524,2.943359 0.31942,1.260172 1.45772,2.166296 2.5858,2.689628 1.58363,0.483916 3.05175,-0.69282 4.05678,-1.783378 1.16818,0.472832 2.5973,1.280602 3.7986,0.448332 1.04172,-0.758656 1.34093,-2.109934 1.75023,-3.256926 0.24719,-1.316346 -0.70474,-2.683086 -2.02734,-2.894531 -0.62425,0.116139 -0.80576,-0.549989 -0.45898,-0.899019 1.64897,-0.62518 2.55532,-3.085621 1.0987,-4.360552 -0.68002,-0.659075 -1.6259,-1.088209 -2.58503,-1.004101 z" />
      <path
         id="path34851"
         style="font-size:6.35px;line-height:0.7;font-family:'FOT-Yuruka Std';-inkscape-font-specification:'FOT-Yuruka Std';text-align:center;text-anchor:middle;fill:#aaaaaa;fill-opacity:1;stroke-width:7.937;stroke-linecap:square;stroke-linejoin:round;paint-order:stroke markers fill"
         d="m 57.376953,74.359375 c -1.005235,0.250458 -2.254755,0.374358 -2.791015,1.396484 -1.232779,-0.0083 -2.440238,0.685467 -3.007813,1.777344 -1.238786,0.897481 -0.843639,2.646557 -0.289256,3.821752 0.298283,0.670074 1.060678,0.833711 1.649426,1.076909 0.564153,0.145219 0.507409,0.790969 0.928893,1.118917 1.056873,1.124002 3.086826,1.539722 4.21875,0.292969 0.853305,-0.812172 1.198461,-1.99107 1.566406,-3.052734 1.019298,-0.718549 1.137815,-2.160345 0.74414,-3.234375 0.554276,-1.803706 -1.265597,-3.467268 -3.019531,-3.197266 z" />
      <path
         id="path34853"
         style="font-size:6.35px;line-height:0.7;font-family:'FOT-Yuruka Std';-inkscape-font-specification:'FOT-Yuruka Std';text-align:center;text-anchor:middle;fill:#aaaaaa;fill-opacity:1;stroke-width:7.937;stroke-linecap:square;stroke-linejoin:round;paint-order:stroke markers fill"
         d="m 63.876953,75.410156 c -1.764917,0.388728 -3.638193,0.481823 -5.301152,1.213694 -1.361273,0.985861 -1.040037,2.988511 -0.322289,4.266063 0.851415,1.23605 2.552078,0.989564 3.789457,0.608134 1.411162,-0.324464 3.175356,-0.235304 4.142578,-1.492188 0.743633,-1.268802 0.308518,-2.963044 -0.578125,-4.035156 -0.468689,-0.414793 -1.108126,-0.61805 -1.730469,-0.560547 z" />
    </g>
    <g
       id="g32593">
      <path
         id="path25930"
         style="font-size:16.51px;line-height:0.7;font-family:'FOT-Yuruka Std';-inkscape-font-specification:'FOT-Yuruka Std';text-align:center;baseline-shift:super;text-anchor:middle;fill:#ffffff;fill-opacity:1;stroke-width:7.937;stroke-linecap:square;stroke-linejoin:round;paint-order:stroke markers fill"
         d="m 40.763672,59.957031 c -1.64134,0.451164 -3.283047,1.08501 -4.685547,2.056641 -0.785072,0.75773 -0.798523,1.988399 -0.433594,2.951172 -0.987775,1.098472 -0.514508,2.698517 0.07706,3.866114 0.37836,1.131096 0.944289,2.432844 2.231538,2.731542 0.44096,0.14828 0.976752,-0.182883 1.104193,0.456322 1.252558,2.000709 3.530835,3.600278 5.984377,3.223759 1.471407,-0.02706 3.233112,-0.98101 3.203218,-2.637892 -0.03152,-1.465663 0.176423,-3.183028 -0.844852,-4.374635 C 47.221522,67.860529 46.300627,67.98477 46.588048,67.51648 47.017393,66.126477 46.1284,64.839476 45.695774,63.576998 45.304845,62.597033 44.402145,61.735645 43.314453,61.726562 42.985025,60.688005 41.868129,59.869079 40.763672,59.957031 Z" />
      <path
         id="path25932"
         style="font-size:16.51px;line-height:0.7;font-family:'FOT-Yuruka Std';-inkscape-font-specification:'FOT-Yuruka Std';text-align:center;baseline-shift:super;text-anchor:middle;fill:#ffffff;fill-opacity:1;stroke-width:7.937;stroke-linecap:square;stroke-linejoin:round;paint-order:stroke markers fill"
         d="m 48.984375,55.232422 c -1.57656,0.304969 -3.404132,0.04453 -4.770008,1.06925 -1.202898,1.165425 -0.607903,2.93125 -0.475782,4.37543 0.504055,3.930475 0.831578,7.891012 1.515321,11.793601 0.601615,1.505273 2.505666,1.665788 3.869141,1.287109 1.302268,-0.112749 3.054931,-0.120616 3.78125,-1.496093 0.112623,-0.709937 0.579417,0.07485 0.95054,0.170327 1.386543,0.810304 3.379247,1.057568 4.598928,-0.187803 0.756521,-0.721271 1.548431,-1.492515 2.009126,-2.435649 C 60.900523,68.532134 59.960982,67.336247 59.066406,66.5625 58.625477,65.249283 58.58893,63.758367 57.634552,62.663984 56.355737,60.776917 54.050244,59.78875 51.865234,59.625 c -0.149764,-1.377939 -0.108518,-3.11356 -1.363281,-4 -0.446724,-0.289655 -0.986472,-0.428959 -1.517578,-0.392578 z" />
      <path
         id="path25934"
         style="font-size:16.51px;line-height:0.7;font-family:'FOT-Yuruka Std';-inkscape-font-specification:'FOT-Yuruka Std';text-align:center;baseline-shift:super;text-anchor:middle;fill:#ffffff;fill-opacity:1;stroke-width:7.937;stroke-linecap:square;stroke-linejoin:round;paint-order:stroke markers fill"
         d="m 62.515625,60.261719 c -3.692459,0.282498 -6.714846,3.975152 -6.185547,7.658203 0.330245,3.137325 2.935924,5.748468 5.990234,6.353516 1.536696,0.473285 3.41324,-0.180895 4.059913,-1.718637 0.347472,-0.53857 0.704078,-1.087846 0.867822,-1.714957 1.82633,-0.406017 3.217496,-2.190255 3.095486,-4.070862 0.199133,-2.971349 -2.051049,-5.941464 -5.048611,-6.333435 -0.912974,-0.181999 -1.851048,-0.224597 -2.779297,-0.173828 z" />
      <path
         id="path25936"
         style="font-size:25.4px;line-height:0.7;font-family:'FOT-Yuruka Std';-inkscape-font-specification:'FOT-Yuruka Std';text-align:center;text-anchor:middle;fill:#ffffff;fill-opacity:1;stroke-width:7.937;stroke-linecap:square;stroke-linejoin:round;paint-order:stroke markers fill"
         d="M 76.822266,65.673828 C 75.22678,65.906433 74.608475,67.62327 74.333984,69 c -1.114372,3.979589 -2.357133,7.927045 -3.335937,11.941406 -0.0914,1.714742 1.663277,2.766456 3.17107,2.944817 1.715553,0.376502 3.419926,1.341611 5.213732,1.003165 1.571417,-0.517442 1.862597,-2.337509 2.239732,-3.724403 0.44472,-1.502114 0.842249,-3.017804 1.305153,-4.514594 1.164336,0.611171 2.767113,0.352766 3.478733,-0.820623 0.849675,-1.142892 1.46125,-2.444432 2.227685,-3.639561 0.621539,-1.288407 0.202491,-3.043455 -1.144559,-3.683192 -2.095478,-1.391366 -4.626252,-1.84078 -7.079122,-2.11195 -1.192467,-0.256426 -2.337402,-0.842456 -3.588205,-0.721237 z" />
      <path
         id="path25938"
         style="font-size:25.4px;line-height:0.7;font-family:'FOT-Yuruka Std';-inkscape-font-specification:'FOT-Yuruka Std';text-align:center;text-anchor:middle;fill:#ffffff;fill-opacity:1;stroke-width:7.937;stroke-linecap:square;stroke-linejoin:round;paint-order:stroke markers fill"
         d="m 88.478516,69.808594 c -1.777854,0.272931 -2.514535,2.155916 -2.880764,3.694465 -0.922444,3.264793 -2.518122,6.589436 -1.798924,10.061394 0.673467,3.117919 3.415059,5.476793 6.474508,6.131869 1.575486,0.3965 3.175145,0.305363 4.619569,1.076953 1.33248,0.516449 2.694346,1.274806 4.157876,1.187663 1.629169,-0.323901 2.176459,-2.090258 2.653649,-3.456452 1.42752,-3.71857 2.99384,-7.388911 4.27995,-11.158783 0.25042,-1.650037 -1.31772,-2.881839 -2.7793,-3.191406 -1.68369,-0.549422 -3.294501,-1.673774 -5.124344,-1.545351 -1.643983,0.343801 -2.148174,2.156444 -2.650597,3.524097 -0.07386,0.129049 0.221207,-0.918782 0.320983,-1.249986 0.420673,-1.320873 0.102219,-3.053928 -1.282973,-3.662054 -1.379463,-0.668543 -2.935886,-0.805779 -4.38838,-1.258718 -0.523446,-0.125401 -1.062835,-0.191886 -1.601253,-0.153691 z" />
      <path
         id="path25940"
         style="font-size:25.4px;line-height:0.7;font-family:'FOT-Yuruka Std';-inkscape-font-specification:'FOT-Yuruka Std';text-align:center;text-anchor:middle;fill:#ffffff;fill-opacity:1;stroke-width:7.937;stroke-linecap:square;stroke-linejoin:round;paint-order:stroke markers fill"
         d="m 113.60547,69.859375 c -3.08301,0.217581 -5.90324,2.298354 -7.16016,5.099609 -1.40231,-0.121148 -2.75559,0.952979 -2.94153,2.351398 -0.47252,1.574581 -1.29847,3.122107 -1.25573,4.795087 0.17793,0.910404 0.89949,1.631085 1.72656,1.998047 -0.52317,2.523238 -1.15511,5.043395 -1.43593,7.603465 0.12686,1.703942 1.93261,2.631895 3.47394,2.681057 1.69061,0.233258 3.42288,0.953953 5.13138,0.529225 1.5645,-0.633843 1.74608,-2.506303 1.95557,-3.956739 0.24435,-1.289942 0.43251,-2.632369 0.75395,-3.882399 1.34916,0.103746 2.65569,-0.905912 2.84993,-2.25433 0.49142,-1.61871 1.34965,-3.218008 1.27702,-4.942936 -0.37081,-0.583098 0.23132,-0.498573 0.6463,-0.696332 1.53734,-0.634058 1.82938,-2.451129 2.49613,-3.787192 0.84652,-1.445937 0.26739,-3.599108 -1.37037,-4.184362 -1.85403,-1.047753 -4.03143,-1.464892 -6.14706,-1.353598 z" />
      <path
         id="path25942"
         style="font-size:25.4px;line-height:0.7;font-family:'FOT-Yuruka Std';-inkscape-font-specification:'FOT-Yuruka Std';text-align:center;text-anchor:middle;fill:#ffffff;fill-opacity:1;stroke-width:7.937;stroke-linecap:square;stroke-linejoin:round;paint-order:stroke markers fill"
         d="m 126.13086,72.019531 c -3.54317,0.03472 -7.33429,1.714815 -8.93945,5.025391 -0.3078,0.369783 -0.19487,0.995786 -0.84375,0.851562 -1.35126,0.22939 -2.27301,1.532288 -2.28842,2.860366 -0.27984,1.541223 -0.88263,3.105074 -0.63736,4.682603 0.28235,0.880312 1.07947,1.507429 1.93945,1.777344 -0.23049,2.5631 -0.56691,5.13533 -0.55029,7.70735 0.31651,1.703332 2.25453,2.40779 3.80444,2.274543 1.70298,0.04154 3.50604,0.558242 5.14624,-0.0815 0.42153,-0.0473 0.83153,-1.165621 0.92187,-0.396485 0.63365,1.521382 2.49002,1.740603 3.9323,1.707009 1.56043,0.05514 3.42288,0.606127 4.97786,-0.117165 1.45152,-0.921498 1.25641,-2.831933 1.40015,-4.318647 0.26757,-3.675642 0.71445,-7.347024 0.79126,-11.030962 -0.0874,-0.479163 -0.70084,-0.79896 -0.11231,-1.18464 1.59939,-2.181468 1.38279,-5.620241 -0.83881,-7.310063 -2.36861,-2.053781 -5.69789,-2.398177 -8.70318,-2.446704 z" />
      <path
         id="path25944"
         style="font-size:25.4px;line-height:0.7;font-family:'FOT-Yuruka Std';-inkscape-font-specification:'FOT-Yuruka Std';text-align:center;text-anchor:middle;fill:#ffffff;fill-opacity:1;stroke-width:7.937;stroke-linecap:square;stroke-linejoin:round;paint-order:stroke markers fill"
         d="m 141.12891,79.808594 c -4.26424,0.184119 -7.88498,3.848142 -8.44507,8.0088 -0.66133,3.911571 1.50361,8.082213 5.08854,9.787988 2.67836,1.375927 5.96218,1.548186 8.75301,0.40243 1.34514,0.765625 3.01426,1.527859 4.56444,0.968122 1.43122,-0.577668 1.90872,-2.146842 2.5139,-3.418553 0.68018,-1.137951 1.38792,-2.702209 0.45486,-3.908943 -0.38946,-0.544761 -1.21995,-0.789417 -1.15234,-1.576172 -0.34901,-2.460717 0.55052,-4.82771 0.41797,-7.291016 -0.10651,-1.476363 -1.5957,-2.327684 -2.94908,-2.384377 -1.82302,-0.07318 -3.65714,-0.303151 -5.47553,-0.198533 -1.22364,-0.336363 -2.50409,-0.468004 -3.7707,-0.389746 z" />
      <path
         id="path25946"
         style="font-size:25.4px;line-height:0.7;font-family:'FOT-Yuruka Std';-inkscape-font-specification:'FOT-Yuruka Std';text-align:center;text-anchor:middle;fill:#ffffff;fill-opacity:1;stroke-width:7.937;stroke-linecap:square;stroke-linejoin:round;paint-order:stroke markers fill"
         d="m 160.91602,77.960938 c -2.504,-0.06105 -4.79747,1.201127 -7.28103,1.309658 -1.32565,0.114058 -2.64256,1.088762 -2.67732,2.506721 -0.0735,1.383015 0.36194,2.730448 0.43455,4.107801 0.46524,3.410762 0.79745,6.844989 1.42419,10.230116 0.60882,1.585001 2.60857,1.869564 4.05586,1.4242 1.70578,-0.31375 3.61122,-0.148437 5.14435,-1.107288 1.05293,-0.858481 0.95487,-2.347632 0.74315,-3.551287 1.41406,2.103964 3.91309,3.573634 6.47601,3.488268 1.88926,-0.242556 2.88334,-2.065198 4.17828,-3.232408 1.00282,-1.100487 1.05302,-3.053151 -0.24273,-3.956313 -0.68401,-0.536155 -1.45154,-1.141974 -1.46596,-2.095402 -0.42496,-2.274141 -1.16607,-4.627355 -2.94938,-6.214449 -2.05533,-2.011738 -4.99241,-2.98711 -7.83997,-2.909617 z" />
      <path
         id="path25948"
         style="font-size:25.4px;line-height:0.7;font-family:'FOT-Yuruka Std';-inkscape-font-specification:'FOT-Yuruka Std';text-align:center;text-anchor:middle;fill:#ffffff;fill-opacity:1;stroke-width:7.937;stroke-linecap:square;stroke-linejoin:round;paint-order:stroke markers fill"
         d="m 177.26367,73.792969 c -3.49788,0.603538 -6.9755,2.645832 -8.51953,5.943359 -0.90193,2.2914 0.0501,5.042216 2.05298,6.425317 0.22337,0.318229 1.22849,0.607762 0.9424,0.885258 -1.11705,0.617192 -1.56198,2.100418 -0.92311,3.218722 0.60004,1.194659 1.62978,2.096166 2.36523,3.201172 0.97562,1.075671 2.61037,1.07533 3.84839,0.49491 2.94019,-1.039136 5.85885,-2.928909 7.11354,-5.896612 0.91135,-2.220062 -0.0309,-4.854149 -1.90594,-6.261464 -0.19894,-0.330638 -1.21721,-0.588108 -0.90755,-0.899334 1.07778,-0.929295 1.16415,-2.71325 0.11749,-3.703317 -0.98027,-1.155116 -1.73296,-2.707117 -3.22101,-3.279105 -0.30983,-0.100558 -0.63726,-0.148016 -0.96289,-0.128906 z" />
      <path
         id="path25917"
         style="font-size:9.525px;line-height:0.7;font-family:'FOT-Yuruka Std';-inkscape-font-specification:'FOT-Yuruka Std';text-align:center;text-anchor:middle;fill:#ffffff;fill-opacity:1;stroke-width:7.937;stroke-linecap:square;stroke-linejoin:round;paint-order:stroke markers fill"
         d="m 126.26758,58.916016 c -1.1361,0.09136 -1.82108,1.176238 -2.13477,2.162109 -1.40385,0.475435 -1.8088,2.1074 -2.10937,3.386719 -0.12744,1.388646 1.08365,2.505007 2.3793,2.709286 -0.23388,0.423789 -0.60773,1.103381 -0.53163,1.718762 0.0267,1.4682 1.48524,2.269934 2.65428,2.806327 1.52741,0.591449 2.96327,-0.600066 3.98882,-1.59982 1.27803,-1.359982 2.71286,-3.096558 2.29143,-5.098712 0.004,-0.508865 -0.60756,-0.881541 -0.5322,-1.31514 0.55022,-1.044358 0.41401,-2.517902 -0.60156,-3.267578 -0.89777,-0.708933 -2.12216,-0.650463 -3.13862,-1.111224 -0.73128,-0.232164 -1.49293,-0.422272 -2.26568,-0.390729 z" />
      <path
         id="path25919"
         style="font-size:9.525px;line-height:0.7;font-family:'FOT-Yuruka Std';-inkscape-font-specification:'FOT-Yuruka Std';text-align:center;text-anchor:middle;fill:#ffffff;fill-opacity:1;stroke-width:7.937;stroke-linecap:square;stroke-linejoin:round;paint-order:stroke markers fill"
         d="m 133.25977,61.822266 c -1.43368,0.166058 -2.1298,1.751442 -2.04688,3.046875 -0.53158,1.680776 1.10854,3.477073 2.82617,3.205078 -0.74225,0.860461 -1.56698,2.106474 -0.88192,3.241865 0.66223,1.07289 1.8213,1.918959 3.06942,2.119463 1.75941,0.03996 2.89134,-1.535318 3.98554,-2.681492 1.41324,-1.678167 2.58147,-3.859454 2.26363,-6.115627 -0.47996,-1.784923 -2.48828,-2.567484 -4.18669,-2.454682 -1.6747,-0.133504 -3.34962,-0.331404 -5.02927,-0.36148 z" />
      <path
         id="path25921"
         style="font-size:9.525px;line-height:0.7;font-family:'FOT-Yuruka Std';-inkscape-font-specification:'FOT-Yuruka Std';text-align:center;text-anchor:middle;fill:#ffffff;fill-opacity:1;stroke-width:7.937;stroke-linecap:square;stroke-linejoin:round;paint-order:stroke markers fill"
         d="m 146.85938,64.429688 c -1.66797,0.422588 -3.2773,1.106231 -4.90553,1.674347 -0.92823,0.234606 -1.90821,0.786673 -2.05346,1.827606 -0.15146,1.146018 0.17301,2.435986 0.96727,3.28814 0.26968,0.468153 1.24216,0.295077 1.08546,0.920844 -0.0301,1.214582 0.83932,2.452898 2.11949,2.512395 1.28178,0.303958 3.0432,0.255114 3.64223,-1.15302 0.4675,-0.983872 0.30334,-2.102287 0.49024,-3.146484 1.43795,-0.4658 2.12947,-2.30623 1.34145,-3.603773 -0.51362,-1.110042 -1.26332,-2.414542 -2.68715,-2.320055 z" />
      <path
         id="path25923"
         style="font-size:9.525px;line-height:0.7;font-family:'FOT-Yuruka Std';-inkscape-font-specification:'FOT-Yuruka Std';text-align:center;text-anchor:middle;fill:#ffffff;fill-opacity:1;stroke-width:7.937;stroke-linecap:square;stroke-linejoin:round;paint-order:stroke markers fill"
         d="m 150.83789,63.300781 c -1.48166,0.248845 -1.96867,1.923318 -1.97102,3.223184 -0.23262,1.094352 0.38859,2.247953 1.40852,2.692832 -0.36698,1.202718 -1.53374,2.333949 -1.03614,3.664292 0.45304,1.175615 1.67851,1.821293 2.80567,2.195083 1.4185,0.322173 2.72047,-0.640448 3.44272,-1.786116 0.37826,-0.438098 0.61889,-1.074034 0.95181,-1.475603 1.30127,0.189475 2.49453,-0.6848 3.0546,-1.810784 1.06236,-1.47311 1.60775,-3.754373 0.24814,-5.222419 -1.38191,-1.344184 -3.45443,-1.001504 -5.20318,-1.266334 -1.19751,-0.111071 -2.4695,-0.284906 -3.70112,-0.214135 z" />
      <path
         id="path25925"
         style="font-size:9.525px;line-height:0.7;font-family:'FOT-Yuruka Std';-inkscape-font-specification:'FOT-Yuruka Std';text-align:center;text-anchor:middle;fill:#ffffff;fill-opacity:1;stroke-width:7.937;stroke-linecap:square;stroke-linejoin:round;paint-order:stroke markers fill"
         d="m 161.20898,63.390625 c -1.39112,0.21687 -2.55712,1.249694 -3.34777,2.362631 -0.66355,1.390331 0.44304,2.809496 1.53314,3.585586 0.12308,0.324024 -0.55981,0.818548 -0.46271,1.333033 -0.0671,1.437665 0.9674,2.625999 1.86719,3.632813 1.02875,1.009973 2.53072,0.412035 3.62361,-0.143221 1.90668,-1.041327 3.94217,-2.151909 5.15764,-4.016936 0.58598,-1.46513 -0.60762,-2.753426 -1.40039,-3.853515 -0.72839,-0.813138 -2.00778,-0.848709 -2.92188,-0.34375 -0.6316,-1.271779 -2.00924,-1.980032 -3.28405,-2.453544 -0.24655,-0.07212 -0.50778,-0.109821 -0.76478,-0.103097 z" />
      <path
         id="path25927"
         style="font-size:9.525px;line-height:0.7;font-family:'FOT-Yuruka Std';-inkscape-font-specification:'FOT-Yuruka Std';text-align:center;text-anchor:middle;fill:#ffffff;fill-opacity:1;stroke-width:7.937;stroke-linecap:square;stroke-linejoin:round;paint-order:stroke markers fill"
         d="m 174.23438,60.423828 c -0.94645,0.449163 -2.1456,0.158787 -2.96094,0.9375 -0.36598,0.244474 -0.57796,0.696525 -0.81055,1.003906 -1.38336,0.139647 -3.22331,-0.01891 -3.97851,1.425782 -0.54734,1.047493 -0.27054,2.281196 -0.0352,3.373046 0.20273,0.582753 0.6057,1.124237 1.18164,1.376954 -0.74995,0.814361 -1.96363,1.662409 -1.61524,2.943359 0.31942,1.260172 1.45772,2.166296 2.5858,2.689628 1.58363,0.483916 3.05175,-0.69282 4.05678,-1.783378 1.16818,0.472832 2.5973,1.280602 3.7986,0.448332 1.04172,-0.758656 1.34093,-2.109934 1.75023,-3.256926 0.24719,-1.316346 -0.70474,-2.683086 -2.02734,-2.894531 -0.62425,0.116139 -0.80576,-0.549989 -0.45898,-0.899019 1.64897,-0.62518 2.55532,-3.085621 1.0987,-4.360552 -0.68002,-0.659075 -1.6259,-1.088209 -2.58503,-1.004101 z" />
      <path
         id="path25912"
         style="font-size:6.35px;line-height:0.7;font-family:'FOT-Yuruka Std';-inkscape-font-specification:'FOT-Yuruka Std';text-align:center;text-anchor:middle;fill:#ffffff;fill-opacity:1;stroke-width:7.937;stroke-linecap:square;stroke-linejoin:round;paint-order:stroke markers fill"
         d="m 57.376953,74.359375 c -1.005235,0.250458 -2.254755,0.374358 -2.791015,1.396484 -1.232779,-0.0083 -2.440238,0.685467 -3.007813,1.777344 -1.238786,0.897481 -0.843639,2.646557 -0.289256,3.821752 0.298283,0.670074 1.060678,0.833711 1.649426,1.076909 0.564153,0.145219 0.507409,0.790969 0.928893,1.118917 1.056873,1.124002 3.086826,1.539722 4.21875,0.292969 0.853305,-0.812172 1.198461,-1.99107 1.566406,-3.052734 1.019298,-0.718549 1.137815,-2.160345 0.74414,-3.234375 0.554276,-1.803706 -1.265597,-3.467268 -3.019531,-3.197266 z" />
      <path
         id="path25914"
         style="font-size:6.35px;line-height:0.7;font-family:'FOT-Yuruka Std';-inkscape-font-specification:'FOT-Yuruka Std';text-align:center;text-anchor:middle;fill:#ffffff;fill-opacity:1;stroke-width:7.937;stroke-linecap:square;stroke-linejoin:round;paint-order:stroke markers fill"
         d="m 63.876953,75.410156 c -1.764917,0.388728 -3.638193,0.481823 -5.301152,1.213694 -1.361273,0.985861 -1.040037,2.988511 -0.322289,4.266063 0.851415,1.23605 2.552078,0.989564 3.789457,0.608134 1.411162,-0.324464 3.175356,-0.235304 4.142578,-1.492188 0.743633,-1.268802 0.308518,-2.963044 -0.578125,-4.035156 -0.468689,-0.414793 -1.108126,-0.61805 -1.730469,-0.560547 z" />
    </g>
    <g
       aria-label="the ruffians"
       transform="translate(2.9176718,-10.583333)"
       id="text186"
       style="font-size:25.4px;line-height:0.7;font-family:'FOT-Yuruka Std';-inkscape-font-specification:'FOT-Yuruka Std';text-align:center;text-anchor:middle;fill:#6f00d5;stroke-width:7.937;stroke-linecap:square;stroke-linejoin:round;paint-order:stroke markers fill;stop-color:#000000">
      <path
         d="m 43.123572,80.583569 c -0.0067,-0.05178 -0.01333,-0.103564 -0.02769,-0.133299 -0.07896,-0.163547 -0.286088,-0.136879 -0.485526,-0.132258 -0.790572,0.03335 -1.464284,-0.906389 -2.117504,-2.259363 l 1.002812,-0.42916 0.02974,-0.01436 c 0.163546,-0.07896 0.217885,-0.270197 0.16097,-0.426054 l -1.013173,-2.554201 c -0.08614,-0.178415 -0.291732,-0.262489 -0.455279,-0.183528 l -1.054594,0.435827 c -0.256883,-0.645984 -0.528122,-1.321704 -0.799872,-1.96051 -0.12203,-0.252754 -0.312756,-0.344006 -0.572687,-0.236844 l -2.874628,1.222877 -0.05947,0.02871 c -0.386564,0.186634 -0.279913,0.48348 -0.208642,0.669072 0.264061,0.660852 0.528633,1.28479 0.77167,1.864125 l -0.980255,0.399936 c -0.178414,0.08614 -0.247621,0.284554 -0.183528,0.455278 l 1.013174,2.554202 c 0.07896,0.163546 0.284554,0.247621 0.455278,0.183528 l 1.143802,-0.478897 c 1.890434,3.725674 3.354719,4.632064 5.978146,3.952138 0.05178,-0.0067 0.09638,-0.0282 0.140989,-0.04974 0.223018,-0.107674 0.285046,-0.320957 0.267602,-0.660872 z"
         style="font-size:65%;baseline-shift:super"
         id="path319" />
      <path
         d="m 55.417844,79.912746 c 0.103041,-0.112035 0.124112,-0.214305 0.114348,-0.296276 -0.02148,-0.180335 -0.221346,-0.322794 -0.329475,-0.393047 -0.879473,-0.543678 -1.190241,-1.337995 -1.333573,-2.401658 -0.435855,-3.240172 -3.113693,-4.783376 -6.195782,-4.416233 -0.180335,0.02148 -0.377064,0.04492 -0.57184,0.08475 L 46.59377,68.227814 c -0.02148,-0.180335 -0.188558,-0.3267 -0.368893,-0.305219 l -3.278818,0.390579 c -0.196729,0.02343 -0.324747,0.204951 -0.303265,0.385286 l 1.597465,13.410368 c 0.02343,0.196729 0.188558,0.3267 0.385287,0.303265 l 3.278818,-0.390578 c 0.180335,-0.02148 0.310306,-0.186605 0.286871,-0.383334 l -0.708899,-5.951055 0.08197,-0.0098 c 1.180375,-0.140608 2.182418,0.454976 2.418718,2.438661 0.396437,3.328001 3.495742,3.524115 3.561319,3.516303 0.147547,-0.01758 0.305629,-0.08629 0.468388,-0.255315 z"
         style="font-size:65%;baseline-shift:super"
         id="path321" />
      <path
         d="m 60.457916,82.87702 c 0.471932,0.08074 0.722467,-0.110893 0.897203,-0.348996 0.338766,-0.511537 0.951205,-1.545749 0.979047,-1.708484 0.04733,-0.27665 -0.204261,-0.470444 -0.43209,-0.509423 l -0.03255,-0.0056 c -0.116699,-0.0032 -0.246888,-0.02549 -0.360803,-0.04498 -2.034193,-0.348026 -2.65768,-1.794689 -2.460001,-2.95011 0.172621,-1.00896 0.9405,-1.581081 1.72163,-1.447438 0.683489,0.116936 0.903591,0.69059 0.878533,0.837052 -0.03898,0.227829 -0.158462,0.240887 -1.038097,0.29139 -0.219908,0.01263 -0.364018,0.07172 -0.394644,0.250729 -0.01114,0.06509 0.117087,1.175775 0.22049,1.746212 0.03168,0.20642 0.09356,0.334256 0.353939,0.378803 0.851792,0.112232 2.086661,0.139254 2.896065,0.0097 1.015823,-0.161203 1.430821,-0.726697 1.558894,-1.47528 0.09188,-0.537027 0.528181,-4.164107 -3.507658,-4.854591 -3.710368,-0.6348 -5.771627,1.525026 -6.16977,3.852143 -0.4232,2.473578 1.000432,5.313378 4.694526,5.945393 z"
         style="font-size:65%;baseline-shift:super"
         id="path323" />
      <path
         d="m 75.452056,93.473668 c 0.264061,0.0913 0.554813,-0.05005 0.646115,-0.314107 l 0.0166,-0.04801 2.482178,-8.655666 c 0.41729,0.03678 0.769968,0.104974 1.106045,0.221177 0.408095,0.141104 0.791288,0.354225 1.133876,0.607056 0.08772,0.05721 0.175443,0.114413 0.24746,0.139314 0.288067,0.0996 0.586224,0.01457 0.774444,-0.296611 l 1.866494,-3.144074 c 0.06551,-0.111728 0.122713,-0.19945 0.155914,-0.295472 0.0996,-0.288066 0.02197,-0.529912 -0.304911,-0.750438 -0.68607,-0.425346 -1.445052,-0.795276 -2.261241,-1.077484 -1.200277,-0.415012 -2.514967,-0.65458 -3.95237,-0.694698 L 74.528217,78.34586 c -0.264061,-0.0913 -0.563114,0.07405 -0.662716,0.362117 l -3.643968,12.715289 c -0.0996,0.288066 0.07405,0.563113 0.362117,0.662716 z"
         id="path325" />
      <path
         d="m 95.410378,100.44987 c 0.265043,0.0884 0.57029,-0.024 0.690833,-0.30508 l 4.829979,-12.312305 c 0.0965,-0.289138 -0.0159,-0.594386 -0.30508,-0.690834 l -4.706457,-1.864474 c -0.265043,-0.08841 -0.57029,0.02397 -0.690833,0.305075 l -3.198553,8.143951 c -0.698819,0.08821 -1.333357,0.06397 -1.815253,-0.09677 -1.011983,-0.337568 -1.493708,-1.301533 -0.898876,-3.405839 0.811875,-2.915509 1.197702,-4.232705 1.591635,-5.895283 0.07235,-0.297175 -0.04003,-0.602422 -0.521929,-0.763169 -0.409612,-0.136635 -4.232722,-1.11738 -4.272892,-1.077228 -0.297175,-0.07235 -0.698802,0.0079 -1.028333,0.995771 -0.490295,1.550107 -1.438736,4.553941 -1.888879,6.144217 -1.278092,4.553976 0.697237,7.301406 4.04642,8.418597 1.060172,0.353643 2.256928,0.538639 3.534041,0.563009 z"
         id="path327" />
      <path
         d="m 107.7855,102.97667 c 0.37847,-2.31489 0.9258,-5.294454 1.49656,-7.953589 l 1.70449,0.511668 0.0492,0.01251 c 0.2708,0.0688 0.52403,-0.102726 0.61119,-0.342651 l 1.33366,-4.011519 c 0.0751,-0.295415 -0.084,-0.597885 -0.35476,-0.666684 l -2.06125,-0.65472 c 0.59418,-2.338702 2.44837,-2.313138 3.70389,-1.99416 l 0.0739,0.01876 c 0.32003,0.08131 0.77647,-0.0648 0.92577,-0.446177 l 1.15614,-2.693861 0.025,-0.09847 c 0.0626,-0.246179 0.0825,-0.634211 -0.21876,-0.789373 -0.72523,-0.446322 -1.59856,-0.825445 -2.53404,-1.063116 -3.12648,-0.794318 -6.93654,-0.03266 -8.56136,4.402824 l -0.30527,0.892099 -1.40908,-0.436614 c -0.29541,-0.07505 -0.57326,0.09022 -0.66668,0.35476 l -1.33366,4.011519 c -0.0688,0.270797 0.0902,0.573267 0.35476,0.666684 l 1.74747,0.548794 c -0.67043,2.948295 -1.2678,6.124805 -1.78852,8.586995 -0.063,0.35091 0.10818,0.70887 0.47744,0.80268 l 0.0492,0.0125 c 0.56621,0.14386 4.67235,0.89879 4.67235,0.89879 0.32003,0.0813 0.68345,0.095 0.82104,-0.44657 z"
         id="path329" />
      <path
         d="m 129.22964,107.18029 c 0.25174,0.0338 0.50874,-0.16232 0.54255,-0.41406 l 0.007,-0.0503 1.02075,-12.369409 c 0.0473,-0.352435 -0.12362,-0.606051 -0.64889,-0.702233 l -8.82215,-1.671918 c 0.13187,-0.981783 0.59663,-2.533927 3.29062,-2.556495 0.16796,1.611504 1.40037,2.930304 3.06185,3.153472 1.93839,0.260364 3.73737,-1.112569 3.99773,-3.050962 0.15555,-1.158 -0.0684,-3.879033 -5.98429,-4.673648 -4.38026,-0.588353 -9.03591,0.682783 -10.0928,5.30765 l -0.14503,0.698107 -1.47173,-0.300195 c -0.30209,-0.04058 -0.58426,0.152176 -0.62146,0.429089 l -0.86339,4.138296 c -0.0372,0.276913 0.15556,0.559084 0.42909,0.621453 l 1.799,0.344152 c -0.32348,2.980668 -0.55151,6.204811 -0.78895,8.735721 -0.0222,0.35582 0.189,0.69172 0.5666,0.74244 l 0.0504,0.007 c 0.579,0.0778 4.74472,0.3554 4.74472,0.3554 0.32726,0.044 0.68984,0.0158 0.76423,-0.53805 l 0.0169,-0.12587 c 0.10969,-2.34305 0.3073,-5.340627 0.56502,-8.022588 l 3.74904,0.708592 -0.72471,8.257416 c -0.012,0.2803 0.15894,0.53391 0.43585,0.57111 l 0.0504,0.007 z"
         id="path331" />
      <path
         d="m 149.44273,103.88098 c 0.0483,-0.10284 0.0717,-0.17965 0.0705,-0.23043 -0.006,-0.25392 -0.28944,-0.39932 -0.54652,-0.51995 -0.8233,-0.41143 -1.12982,-1.49633 -1.16777,-3.01986 -0.0418,-1.675878 0.25871,-3.893848 0.55664,-6.213387 l -0.003,-0.126961 c -0.008,-0.304705 -0.19356,-0.630375 -0.85502,-0.664713 l -4.40233,-0.271451 -0.12696,0.0032 c -0.3047,0.0076 -0.53134,0.08946 -0.67926,0.271 -1.00105,-0.406997 -2.25222,-0.655315 -3.52182,-0.623688 -5.02764,0.125245 -7.07654,4.571848 -7.00064,7.618907 0.10184,4.08813 3.83927,7.24723 8.07976,7.1416 1.295,-0.0323 2.65858,-0.37113 3.96189,-1.08961 1.29934,1.16181 3.08691,1.5238 3.34083,1.51748 0.3301,-0.008 0.57832,-0.24308 0.7961,-0.68044 z m -7.48606,-1.66829 c -0.5777,0.26847 -1.13379,0.38395 -1.61624,0.39597 -1.65049,0.0411 -2.67115,-1.15304 -2.70657,-2.575 -0.0323,-1.294994 0.81788,-2.866053 2.41758,-2.905904 0.73637,-0.01834 1.43082,0.320068 1.74817,0.820319 -0.0318,0.763029 -0.0401,1.449249 -0.0237,2.109445 0.0196,0.78715 0.0881,1.49687 0.18073,2.15517 z"
         id="path333" />
      <path
         d="m 166.49796,97.099402 c -0.8698,-4.772791 -5.2827,-7.170056 -10.35535,-6.245613 -0.89959,0.16394 -1.80594,0.432388 -2.74406,0.809898 l -2.82603,0.360107 -0.05,0.0091 c -0.24988,0.04554 -0.43379,0.31142 -0.40869,0.590846 l 1.69335,13.116942 c 0.0546,0.29986 0.29554,0.48833 0.59995,0.45867 l 5.04323,-0.6609 0.05,-0.009 c 0.24989,-0.0455 0.4338,-0.31142 0.38826,-0.5613 l -1.17829,-9.157327 c 1.84237,-0.232481 3.31716,0.634761 3.79532,3.258547 l 0.15483,0.849606 c 0.81059,4.447944 5.0501,5.043704 5.49989,4.961734 0.2249,-0.041 0.46112,-0.16149 0.67457,-0.40694 0,0 2.15053,-2.22501 2.14142,-2.27499 0.15215,-0.15682 0.1998,-0.32041 0.17247,-0.47034 -0.0501,-0.27487 -0.34551,-0.47922 -0.51821,-0.57684 -1.19758,-0.76285 -1.72735,-1.828127 -1.98237,-3.227479 z"
         id="path335" />
      <path
         d="m 173.10504,102.66483 c 3.25289,-1.0016 7.11979,-3.89318 6.23779,-6.757664 -0.28404,-0.922462 -1.1059,-1.865358 -2.5963,-2.73529 -1.23639,-0.735526 -1.74254,-1.084638 -1.86961,-1.497318 -0.14949,-0.485506 0.25935,-1.142928 1.71587,-1.591405 l 0.0971,-0.0299 c 0.31558,-0.09717 0.55271,-0.276492 0.47049,-0.54352 -0.0224,-0.07283 -0.0448,-0.145652 -0.1233,-0.227804 l -1.95945,-2.479576 c -0.30447,-0.384633 -0.57712,-0.406988 -1.52385,-0.115478 -3.18007,0.979176 -6.68846,3.654058 -5.84383,6.397166 0.28403,0.922461 1.0424,1.831756 2.48424,2.716637 l 0.87967,0.526444 c 0.4744,0.332311 0.90958,0.623545 1.00675,0.939124 0.17939,0.582607 -0.29103,1.471605 -1.7158,1.936883 -0.2913,0.0897 -0.76186,0.287739 -0.64974,0.651868 0.0149,0.04855 0.0617,0.113902 0.10835,0.179252 l 1.93517,2.48705 c 0.27272,0.36783 0.54537,0.39019 1.07942,0.22575 z"
         id="path337" />
    </g>
    <path
       style="fill:none;fill-opacity:1;stroke:none;stroke-width:1.058;stroke-linecap:square;stroke-linejoin:round;stroke-dasharray:none;stroke-dashoffset:0;stroke-opacity:1;stop-color:#000000"
       d="M 34.424315,98.034461 C 56.126601,61.690795 99.156987,129.65245 184.28234,97.473195"
       id="path5520"
       sodipodi:nodetypes="cc" />
    <path
       id="path486"
       style="font-size:16.51px;line-height:0.7;font-family:'FOT-Yuruka Std';-inkscape-font-specification:'FOT-Yuruka Std';text-align:center;baseline-shift:super;text-anchor:middle;fill:#8725e3;stroke:none;stroke-width:7.937;stroke-linecap:square;stroke-linejoin:round;stroke-dasharray:none;stroke-opacity:1;paint-order:stroke markers fill;fill-opacity:1"
       d="M 66.92408 63.442122 C 65.831885 63.917519 64.957482 64.790597 64.54283 65.963932 C 64.563468 66.028275 64.572125 66.083575 64.566602 66.115861 C 64.551312 66.205227 64.521606 66.260802 64.440511 66.299312 C 64.338488 66.682842 64.278247 67.09133 64.278247 67.528178 C 64.278247 68.019072 64.343908 68.455121 64.465316 68.852128 C 65.195655 68.896868 66.012716 68.887374 66.604203 68.7927 C 67.620024 68.631497 68.035208 68.065919 68.163281 67.317338 C 68.232107 66.91506 68.493331 64.779004 66.92408 63.442122 z M 64.868392 69.743547 C 64.978994 69.921964 65.104139 70.092252 65.243046 70.256177 C 65.243995 70.252453 65.251301 70.239123 65.251831 70.236023 C 65.295774 69.97917 65.081532 69.799915 64.868392 69.743547 z M 62.449418 71.414762 C 61.985352 71.414762 61.552378 71.477251 61.148722 71.585811 C 61.729605 71.891141 62.401408 72.12696 63.180123 72.260189 L 63.37546 72.293778 C 63.84739 72.374518 64.097827 72.182549 64.272563 71.944446 C 64.284492 71.926432 64.302883 71.894448 64.315454 71.875199 C 63.773985 71.584947 63.161292 71.414762 62.449418 71.414762 z M 75.833614 71.438534 L 73.402755 79.920703 C 73.958173 80.227452 74.589753 80.405945 75.327185 80.405945 C 78.070379 80.405945 79.823035 78.374408 79.823035 75.910612 C 79.823035 73.601969 78.284331 71.672399 75.833614 71.438534 z M 89.85343 72.085522 C 89.022557 73.415774 88.115464 74.616056 87.108378 75.747831 C 86.729275 76.967279 86.354119 78.1951 86.113607 79.044788 C 84.835517 83.598754 86.810696 86.346206 90.159871 87.463395 C 91.220041 87.817038 92.416912 88.001782 93.694023 88.026152 L 94.631433 88.398222 C 96.611596 86.152174 98.98476 84.17811 101.97207 82.033752 C 100.06915 80.667797 98.415226 79.374804 96.952738 78.037614 L 94.947693 83.142729 C 94.248876 83.230939 93.614711 83.206834 93.132817 83.046094 C 92.120836 82.708526 91.638815 81.744402 92.233647 79.6401 C 92.919291 77.177895 93.298793 75.851865 93.638212 74.498812 C 93.189574 73.929445 92.762559 73.337637 92.353019 72.720109 C 91.585258 72.51736 90.570477 72.259137 89.85343 72.085522 z M 115.29115 82.047188 C 112.87821 82.007783 110.37902 83.521305 109.58969 86.482576 C 108.98309 88.758349 109.6174 90.643786 110.69092 92.441386 L 110.70332 92.393327 C 111.08179 90.078441 111.62911 87.098936 112.19987 84.439807 L 113.90416 84.951404 L 113.95325 84.963806 C 114.22405 85.032606 114.47742 84.861116 114.56458 84.621191 L 115.41828 82.052873 C 115.37587 82.051223 115.33363 82.047882 115.29115 82.047188 z M 115.92729 82.094731 L 115.41828 84.534375 C 115.38108 84.811288 115.57366 85.093675 115.84719 85.156042 L 117.64605 85.500208 C 117.32257 88.48087 117.09491 91.704686 116.85747 94.235592 C 116.83527 94.59141 117.04624 94.927462 117.42384 94.978182 L 117.47397 94.9849 C 118.05297 95.0627 122.2189 95.340434 122.2189 95.340434 C 122.54616 95.384434 122.9088 95.356332 122.98319 94.802482 L 123.00024 94.676392 C 123.10993 92.333346 123.30735 89.336099 123.56507 86.654142 L 127.31419 87.362626 L 126.58917 95.620003 C 126.57925 95.851866 126.6961 96.063304 126.89303 96.151237 C 128.39132 95.180359 129.58191 93.922623 130.1073 91.951493 C 131.0428 88.441839 128.78454 85.474292 126.03572 84.741597 C 124.12136 84.231329 121.97526 84.789247 120.46862 86.990039 L 120.39472 86.970402 C 120.08519 84.285508 118.50129 82.732817 116.61149 82.229089 C 116.38688 82.169223 116.15815 82.125086 115.92729 82.094731 z M 154.28826 83.946814 C 154.09166 84.575398 153.82217 85.148625 153.50174 85.681592 L 154.72492 95.157499 C 154.77952 95.457359 155.02048 95.645529 155.32489 95.615869 L 160.36799 94.954928 L 160.41812 94.946143 C 160.66799 94.900643 160.85175 94.634815 160.80621 94.384937 L 160.32406 90.636845 C 157.90433 88.83017 155.24248 87.025773 154.28826 83.946814 z M 150.72103 88.745487 C 147.7591 91.199461 144.14831 92.966465 143.71836 96.582218 C 144.71826 96.441819 145.73925 96.116391 146.72593 95.572461 C 148.02527 96.734269 149.81289 97.096001 150.06681 97.089681 C 150.39691 97.081681 150.64485 96.846462 150.86263 96.409102 L 152.36021 93.297664 C 152.40851 93.194824 152.43221 93.117967 152.43101 93.067187 C 152.42501 92.813269 152.14135 92.667951 151.88427 92.547323 C 151.06097 92.135893 150.75433 91.050878 150.71638 89.527352 C 150.71019 89.279286 150.71332 89.015887 150.72103 88.745487 z " />
    <g
       aria-label=""
       transform="translate(12.236979,6.0192708)"
       id="text25820"
       style="font-size:9.525px;line-height:0.7;font-family:'FOT-Yuruka Std';-inkscape-font-specification:'FOT-Yuruka Std';text-align:center;text-anchor:middle;fill:#8725e3;stroke-width:7.937;stroke-linecap:square;stroke-linejoin:round;paint-order:stroke markers fill;stop-color:#000000">
      <path
         d="m 114.89941,63.680667 c 0.0415,0.03011 0.0761,0.04866 0.12233,0.06029 0.13854,0.03491 0.27956,-0.01796 0.33738,-0.0525 1.96575,-1.135235 3.04374,-3.152297 3.18106,-3.697238 0.12801,-0.507995 -0.17606,-0.977524 -0.72783,-1.165678 l -5.17151,-1.735346 -0.0185,-0.0047 c -0.0924,-0.02327 -0.19411,0.02967 -0.22662,0.119705 l -0.50395,1.415184 -0.005,0.01847 c -0.0233,0.09236 0.032,0.184872 0.12203,0.217382 l 3.54614,1.207905 c 0.0531,0.0232 0.14313,0.05571 0.11287,0.175783 -0.0489,0.193962 -0.97994,1.472049 -1.88024,2.355157 -0.0417,0.04843 -0.0695,0.08072 -0.0811,0.126907 -0.0256,0.101599 0.0528,0.18029 0.13585,0.24051 z m 2.6075,-5.825963 c 0.12007,0.03026 0.25418,-0.03418 0.29368,-0.151921 l 0.45536,-1.378313 0.005,-0.01847 c 0.0279,-0.110836 -0.0365,-0.244945 -0.15425,-0.284438 -0.8312,-0.248739 -2.64834,-0.755747 -3.65502,-1.048707 l -0.0185,-0.0047 c -0.12008,-0.03026 -0.24495,0.0365 -0.29368,0.151922 l -0.45296,1.329803 -0.005,0.01847 c -0.0279,0.110835 0.0434,0.256508 0.16349,0.286765 0.94435,0.267431 2.48892,0.76469 3.64338,1.094889 z"
         id="path306" />
      <path
         d="m 123.9354,65.249071 c 0.0513,0.03805 0.10596,0.05735 0.16224,0.06726 0.12195,0.02148 0.24443,-0.01498 0.29022,-0.05528 1.87662,-1.429724 3.44352,-3.407248 3.83837,-5.649219 0.11564,-0.656644 -0.47822,-1.128754 -0.90973,-1.20475 l -0.0469,-0.0083 -5.88644,-0.514435 c -0.0955,-0.0071 -0.19475,0.06242 -0.21127,0.156223 l -0.003,0.01876 -0.13684,1.600727 c -0.009,0.104839 0.053,0.193101 0.15623,0.211274 l 0.0188,0.0033 4.00925,0.29989 0.0563,0.0099 c 0.0844,0.01487 0.12638,0.05127 0.11151,0.135696 -0.033,0.187613 -1.31569,2.418301 -2.52965,3.819658 -0.0491,0.05906 -0.0778,0.112035 -0.086,0.158938 -0.0132,0.07505 0.0254,0.130209 0.10324,0.1826 z"
         id="path308" />
      <path
         d="m 133.42843,66.685522 c 0.0948,0.0092 0.18838,-0.06793 0.19845,-0.17222 l 0.30216,-3.128692 c 0.0101,-0.10429 -0.0679,-0.188378 -0.16273,-0.197534 l -0.69211,-0.06684 c 0.91652,-0.275118 1.7789,-0.584172 2.33056,-0.84668 0.07,-0.03151 0.12568,-0.112264 0.133,-0.188111 0.003,-0.02844 0.006,-0.05689 -0.0107,-0.08716 l -0.62721,-1.333295 c -0.0315,-0.07003 -0.13122,-0.127505 -0.21655,-0.135746 -0.0284,-0.0027 -0.0578,0.004 -0.0872,0.01072 -1.21252,0.466624 -3.30148,1.28879 -4.77672,1.701333 -0.0786,0.02112 -0.12293,0.08382 -0.13026,0.159668 -0.003,0.02844 0.005,0.04832 0.0116,0.07768 l 0.31369,1.111629 c 0.0202,0.08807 0.11226,0.125675 0.18811,0.133 0.009,9.15e-4 0.64346,-0.02398 1.90861,-0.34198 l -0.28568,2.958036 c -0.0101,0.10429 0.067,0.197859 0.1713,0.207931 z"
         id="path310" />
      <path
         d="m 143.2244,61.719081 c 0.13308,0.02983 0.18987,0.06846 0.18888,0.173233 -2.6e-4,0.02857 -0.001,0.142868 -0.25667,0.959655 -0.0196,0.05697 -0.0296,0.104502 -0.0301,0.16165 -0.002,0.20954 0.22591,0.287885 1.39376,0.689401 0.0379,0.01941 0.076,0.01976 0.11412,0.02012 0.12382,0.0012 0.21025,-0.07423 0.2488,-0.121493 0.94209,-0.915114 1.34495,-2.225836 1.35014,-2.778262 0.006,-0.619098 -0.6106,-0.910652 -1.02941,-0.943164 l -6.11013,-0.552733 -0.0191,-1.79e-4 c -0.10477,-9.85e-4 -0.19129,0.08393 -0.2018,0.188612 l -0.15728,1.532115 -1.8e-4,0.01905 c -9.8e-4,0.10477 0.0839,0.191297 0.18852,0.21133 z m -3.06869,5.229198 c 0.10423,0.05813 0.18016,0.08742 0.25636,0.08814 0.53338,0.005 2.14349,-2.056401 2.35,-3.759511 l 4.5e-4,-0.04762 c 0.001,-0.152393 -0.0833,-0.257969 -0.2924,-0.307561 l -1.67275,-0.396734 c -0.0285,-0.0098 -0.0666,-0.01015 -0.0951,-0.01042 -0.14287,-0.0013 -0.24854,0.09292 -0.27845,0.235519 -0.22694,0.836104 -0.8033,2.364281 -1.33431,3.121325 -0.0482,0.06623 -0.10638,0.170458 -0.10728,0.265704 -7.2e-4,0.0762 0.0271,0.152662 0.13138,0.210794 z"
         id="path312" />
      <path
         d="m 151.09552,61.160721 c 0.0714,-0.06301 0.0954,-0.122243 0.0893,-0.198204 -0.0392,-0.493742 -1.85944,-1.514766 -2.13479,-1.492877 -0.095,0.0075 -0.18613,0.06257 -0.2663,0.135829 l -1.20516,0.946201 c -0.0452,0.03226 -0.0612,0.07175 -0.0574,0.119224 0.0128,0.161416 0.21858,0.345716 1.75832,1.68524 0.0718,0.06118 0.123,0.104883 0.18947,0.0996 0.057,-0.0045 0.12117,-0.0383 0.21957,-0.12256 z m 3.34447,0.603647 c -0.0433,-0.06345 -0.11275,-0.09614 -0.17921,-0.09086 -0.019,0.0015 -0.0467,0.01327 -0.0745,0.02503 -1.12801,0.834963 -3.88035,2.39146 -5.32503,3.08916 -0.0634,0.04326 -0.0961,0.112748 -0.0909,0.179213 0.002,0.02849 0.014,0.05622 0.0258,0.08395 l 1.0736,1.6059 c 0.0433,0.06345 0.11275,0.09614 0.17922,0.09086 0.0285,-0.0023 0.0562,-0.01402 0.0839,-0.02578 1.84574,-0.700916 3.59331,-1.79534 5.19524,-3.279498 0.0532,-0.052 0.0859,-0.121489 0.0806,-0.187954 -0.002,-0.01899 -0.004,-0.04747 -0.025,-0.07445 z"
         id="path314" />
      <path
         d="m 156.91089,66.084939 c 0.1027,0.08821 0.19376,0.110763 0.27817,0.0958 0.0844,-0.01496 0.15445,-0.05639 0.23387,-0.09949 2.35123,-1.306669 3.99758,-4.461795 3.80106,-6.825978 -0.007,-0.03751 -0.002,-0.06731 -0.009,-0.104829 -0.11137,-0.628382 -0.75934,-0.900477 -1.18804,-0.863192 l -3.79369,0.372488 -0.0188,0.0033 c -0.10317,0.01828 -0.17428,0.108275 -0.16538,0.213105 l 0.13359,1.572442 0.003,0.01876 c 0.0183,0.103167 0.10828,0.174279 0.21311,0.165373 l 2.01823,-0.183574 c 0.14235,-0.01555 0.21797,0.02908 0.23792,0.141629 0.0831,0.468941 -0.91647,3.016092 -2.66186,4.30245 -0.12133,0.07954 -0.16597,0.15517 -0.15267,0.2302 0.008,0.04689 0.0448,0.0888 0.0906,0.129047 z m 3.51645,-2.209672 c -0.0292,0.05354 -0.0396,0.103762 -0.033,0.141277 0.0133,0.07503 0.0873,0.11029 0.1706,0.143886 0.51881,0.198253 1.71539,0.672994 2.28003,0.911493 0.0519,0.01982 0.12252,0.03633 0.17879,0.02635 0.0656,-0.01163 0.11694,-0.04975 0.15053,-0.133087 0.17238,-0.446508 0.53755,-1.33347 0.69449,-1.757896 0.0259,-0.0723 0.044,-0.133561 0.0341,-0.189834 -0.0133,-0.07503 -0.0718,-0.132371 -0.17559,-0.172022 -1.27328,-0.470821 -2.44243,-0.408711 -2.51746,-0.395413 -0.0844,0.01496 -0.16384,0.05806 -0.21287,0.163481 z m 2.76333,-6.622712 c 0.0463,-0.06625 0.0738,-0.129169 0.0639,-0.185442 -0.008,-0.04689 -0.0354,-0.09046 -0.1,-0.127384 l -0.0315,-0.01377 -0.63207,-0.400669 c -0.074,-0.03526 -0.14626,-0.06114 -0.22129,-0.04784 -0.0469,0.0083 -0.0921,0.026 -0.13238,0.07183 l -0.41349,0.450549 c -0.0325,0.03478 -0.0899,0.09331 -0.0782,0.158967 0.007,0.03751 0.0337,0.08109 0.0889,0.119668 l 0.71494,0.540757 c 0.0552,0.03858 0.11813,0.06612 0.18378,0.05449 0.0375,-0.0066 0.0811,-0.03372 0.12133,-0.07954 z m -1.694,0.648476 c 0.15611,-0.04702 0.21179,-0.114924 0.19351,-0.218092 -0.005,-0.02814 -0.01,-0.05627 -0.0243,-0.08275 l -0.28411,-0.675155 c -0.0481,-0.107559 -0.16182,-0.203483 -0.29312,-0.180212 l -0.0281,0.005 -0.6697,0.205753 c -0.0998,0.03704 -0.16822,0.08785 -0.14827,0.200401 0.007,0.03752 0.021,0.06399 0.0387,0.109222 l 0.32495,0.687263 c 0.0448,0.0888 0.11872,0.124061 0.25002,0.100789 l 0.0657,-0.01164 z"
         id="path316" />
    </g>
    <g
       aria-label=""
       transform="rotate(-10.827984)"
       id="text25824"
       style="font-size:6.35px;line-height:0.7;font-family:'FOT-Yuruka Std';-inkscape-font-specification:'FOT-Yuruka Std';text-align:center;text-anchor:middle;fill:#8725e3;stroke-width:7.937;stroke-linecap:square;stroke-linejoin:round;paint-order:stroke markers fill;stop-color:#000000">
      <path
         d="m 42.510551,88.653878 c 0.06985,-0.0064 0.127,-0.0635 0.127,-0.13335 l -0.0254,-0.9652 c 0,-0.0762 -0.09525,-0.13335 -0.1651,-0.13335 l -0.53975,0.01905 v -0.14605 c 0,-0.12065 0,-0.23495 -0.0063,-0.34925 -0.3048,0.04445 -0.6223,0.0635 -0.64135,0.0635 -0.20955,0 -0.3429,-0.09525 -0.3937,-0.24765 l -0.0762,-0.254 -0.15875,-0.0063 c -0.12065,0 -0.17145,0.0889 -0.1778,0.2032 -0.0127,0.254 -0.0254,0.51435 -0.0508,0.79375 l -1.0541,0.0381 -0.05715,-0.61595 c -0.0127,-0.1651 -0.12065,-0.20955 -0.1778,-0.20955 h -0.0127 l -1.016,0.10795 c -0.10795,0.0127 -0.15875,0.0762 -0.15875,0.17145 0,0.1905 0.0063,0.38735 0.0127,0.59055 l -0.81915,0.03175 c -0.06985,0 -0.0889,0.0635 -0.0889,0.13335 l 0.0254,0.9652 c 0.0064,0.0635 0.05715,0.127 0.12065,0.127 h 0.0127 l 0.83185,-0.0254 c 0.0635,0.70485 0.127,0.8128 0.26035,0.8255 l 1.016,-0.1016 c 0.127,-0.01905 0.2032,-0.12065 0.2032,-0.2032 v -0.0127 l -0.0508,-0.5588 0.7747,-0.03175 c -0.18415,0.8255 -0.52705,1.59385 -1.1811,2.0701 -0.05715,0.04445 -0.1143,0.1016 -0.1143,0.15875 0,0.03175 0.0127,0.05715 0.04445,0.08255 l 0.60325,0.4953 c 0.09525,0.0762 0.15875,0.127 0.2286,0.127 0.13335,0 1.4605,-0.7366 1.94945,-2.9845 z m 0.34925,-2.1336 c 0.0381,-0.0381 0.0635,-0.0762 0.0635,-0.1143 0,-0.03175 -0.0127,-0.0635 -0.0508,-0.09525 l -0.01905,-0.0127 -0.3683,-0.33655 c -0.04445,-0.03175 -0.0889,-0.05715 -0.1397,-0.05715 -0.03175,0 -0.0635,0.0063 -0.09525,0.03175 l -0.32385,0.24765 c -0.0254,0.01905 -0.06985,0.0508 -0.06985,0.09525 0,0.0254 0.0127,0.05715 0.04445,0.0889 l 0.4064,0.43815 c 0.03175,0.03175 0.06985,0.05715 0.1143,0.05715 0.0254,0 0.05715,-0.0127 0.0889,-0.0381 z m -1.18745,0.2286 c 0.10795,-0.0127 0.1524,-0.0508 0.1524,-0.12065 0,-0.01905 0,-0.0381 -0.0063,-0.05715 l -0.10795,-0.47625 c -0.01905,-0.0762 -0.08255,-0.1524 -0.17145,-0.1524 h -0.01905 l -0.46355,0.05715 c -0.06985,0.0127 -0.12065,0.0381 -0.12065,0.1143 0,0.0254 0.0063,0.04445 0.0127,0.0762 l 0.13335,0.48895 c 0.01905,0.0635 0.0635,0.09525 0.1524,0.09525 h 0.04445 z"
         id="path301" />
      <path
         d="m 48.377951,89.600028 c 0.06985,0 0.1524,-0.05715 0.1524,-0.13335 v -1.14935 c 0,-0.08255 -0.08255,-0.14605 -0.1524,-0.14605 l -4.31165,-0.0063 c -0.06985,0 -0.1524,0.0635 -0.1524,0.1397 v 1.1557 c 0,0.08255 0.0889,0.14605 0.15875,0.14605 z"
         id="path303" />
    </g>
    <path
       style="fill:none;fill-opacity:1;stroke:none;stroke-width:7.937;stroke-linecap:square;stroke-linejoin:round;stroke-dasharray:none;stroke-dashoffset:0;stroke-opacity:1;paint-order:stroke markers fill;stop-color:#000000"
       d="M 95.977603,56.753124 C 121.89132,67.290855 152.22617,70.860257 178.5276,59.597395"
       id="path25889" />
  </g>
</svg>
